<svg width="51" height="30" viewBox="0 0 51 30" fill="none" xmlns="http://www.w3.org/2000/svg">
<path fill-rule="evenodd" clip-rule="evenodd" d="M16.1762 28.2298C14.6637 29.0644 12.9251 29.5394 11.0755 29.5394C5.23631 29.5394 0.502747 24.8058 0.502747 18.9666C0.502747 13.1275 5.23631 8.39392 11.0755 8.39392C12.9251 8.39392 14.6637 8.86887 16.1762 9.70346C16.7155 8.91292 17.6234 8.39393 18.6526 8.39393C20.307 8.39393 21.6482 9.73511 21.6482 11.3895V18.9555C21.6482 18.9592 21.6482 18.9629 21.6482 18.9666C21.6482 18.9703 21.6482 18.974 21.6482 18.9778V26.5438C21.6482 28.1982 20.307 29.5394 18.6526 29.5394C17.6234 29.5394 16.7155 29.0204 16.1762 28.2298ZM15.657 19.018C15.653 21.5693 13.5836 23.6363 11.0314 23.6363C8.47678 23.6363 6.40585 21.5653 6.40585 19.0107C6.40585 16.4561 8.47678 14.3851 11.0314 14.3851C13.5836 14.3851 15.653 16.4521 15.657 19.0033V19.018Z" fill="white"/>
<rect x="24.2914" y="0.0238647" width="5.9912" height="29.5155" rx="2.9956" fill="white"/>
<path fill-rule="evenodd" clip-rule="evenodd" d="M35.9213 0.0238647C34.2669 0.0238647 32.9257 1.36504 32.9257 3.01947V26.5438C32.9257 28.1982 34.2669 29.5394 35.9213 29.5394C37.5758 29.5394 38.9169 28.1982 38.9169 26.5438V22.9365L45.9934 28.8743C47.2607 29.9377 49.1502 29.7724 50.2137 28.5051C51.2771 27.2377 51.1118 25.3482 49.8444 24.2848L43.5226 18.9802L49.8445 13.6755C51.1118 12.6121 51.2771 10.7226 50.2137 9.45522C49.1502 8.18786 47.2607 8.02255 45.9934 9.08599L38.9169 15.0238V3.01947C38.9169 1.36504 37.5758 0.0238647 35.9213 0.0238647Z" fill="white"/>
</svg>
