<svg width="3757" height="2298" viewBox="0 0 3757 2298" fill="none" xmlns="http://www.w3.org/2000/svg">
<path d="M3526.75 2291.44L336.163 2290.35C336.163 2290.35 -203.023 1547.25 84.5376 1050.15C372.098 553.027 792.11 903.947 827.126 544.8C828.322 532.654 827.366 520.614 827.366 508.867C827.348 506.067 827.401 503.32 827.549 500.56C838.308 294.307 972.892 161 1150.5 84.3203C1156.23 81.8269 1162.01 79.4269 1167.82 77.0669C1451.03 -37.7065 1833.99 -14.0931 2003.53 84.5869C2291.97 252.494 2290.17 454.6 2885.79 387.934C3481.42 321.28 3595.02 878.734 3439.97 1162.73C3219.97 1565.75 4050.02 1499.55 3526.75 2291.44" fill="#EBF3FA"/>
<path d="M2286.53 1055.91L2208.98 979.574L2132.89 904.667C2129.19 900.267 2128.43 895.814 2129.69 891.374C2133.61 877.414 2157.27 863.534 2171.1 851.894L2172.49 850.707C2190.7 835.347 2218.17 837.68 2233.51 855.894L2326.54 966.16H2326.55L2354.14 998.867C2369.5 1017.08 2367.17 1044.55 2348.95 1059.89L2347.57 1061.08C2329.35 1076.44 2301.89 1074.11 2286.53 1055.91Z" fill="#FFB27D"/>
<path d="M2309.09 564.68C2308.19 574.4 2297.22 590.054 2277.49 592.4C2177.78 604.28 2115.69 572.814 2112.79 572.854C2036.99 573.214 1983.31 545.6 1967.07 559.894C1966.47 560.414 1966.63 561.547 1967.49 563.147C1982.35 591.987 2212.38 783.774 2215.73 805.054C2219.26 827.52 1787.85 933.227 1787.85 933.227C1787.85 933.227 1724.11 893.494 1652.74 841.347C1616.54 814.934 1578.41 785.334 1545.62 756.08C1512.55 726.654 1484.9 697.534 1470.13 672.44L1470.05 672.28C1467.82 668.52 1465.9 664.854 1464.31 661.267C1464.06 660.707 1463.82 660.2 1463.63 659.72C1452.09 632.614 1432.42 608.747 1410.06 588.427C1352.13 535.774 1276.14 506.84 1276.14 506.84L1592.93 337.8C1592.93 337.8 1883.79 371.974 1930.33 400.214C1998.14 441.4 2140.17 471.587 2167.49 487.547C2187.77 499.374 2294.65 537.747 2302.46 541.187C2305.81 542.694 2310.26 552.534 2309.09 564.68" fill="#FFB27D"/>
<path d="M1492.71 289.32C1492.71 289.32 1492.63 289.96 1492.46 291.174V291.187C1491.17 300.72 1484.62 345.454 1469.91 396.467V396.48C1469.35 398.36 1468.81 400.267 1468.23 402.16V402.187C1467.98 403.027 1467.71 403.894 1467.46 404.734V404.76C1449.17 465.294 1419.41 532.387 1373.49 559.44H1373.46C1370.83 560.987 1368.15 562.4 1365.41 563.694C1359.05 566.654 1352.39 568.854 1345.43 570.187C1340.3 571.2 1335.03 571.707 1329.57 571.707C1329.57 571.707 1289.29 566.867 1229.02 559.534C1225.73 559.134 1222.37 558.707 1218.94 558.28C1109.99 544.987 943.486 524.387 827.366 508.867C827.347 506.067 827.402 503.32 827.55 500.56C838.308 294.307 972.893 161 1150.5 84.3203C1244.82 140.72 1333.19 193.667 1396.51 231.627L1396.57 231.64L1396.71 231.734C1400.75 234.16 1404.71 236.534 1408.54 238.814L1408.78 238.96C1460.61 270.04 1492.71 289.32 1492.71 289.32" fill="#F99746"/>
<path d="M1517.42 528.654C1517.55 528.934 1517.74 529.187 1517.79 529.48C1547.57 717.694 1656.85 686.64 1656.85 686.64L1652.74 841.347C1616.54 814.934 1578.41 785.334 1545.62 756.08C1512.55 726.654 1484.9 697.534 1470.13 672.44L1470.05 672.28C1467.47 667.614 1465.54 663.88 1464.31 661.267C1464.06 660.707 1463.82 660.2 1463.63 659.72C1452.09 632.614 1432.42 608.747 1410.06 588.427C1421.69 568.547 1435.27 545.96 1448.7 523.854C1465.06 496.96 1505.19 499.64 1517.42 528.654" fill="#EFA26F"/>
<path d="M1396.71 231.454C1396.71 231.454 1294.5 319.854 1252.41 381.974L1282.91 434.88L1231.02 429.987C1231.02 429.987 1204.59 525.894 1218.95 558.294L1360.46 571.614L1523.57 310.587L1396.71 231.454" fill="#ED7D2B"/>
<path d="M1228.26 580.04C1224.07 541.574 1261.38 463.04 1261.38 463.04L1386.85 488.08L1290.25 386.267C1312.05 341.134 1364.35 272.254 1396.71 231.454C1412.83 211.134 1423.99 197.787 1423.99 197.787C1516.91 268.4 1603.42 338.787 1603.42 338.787C1565.49 353.48 1529.99 393.387 1500.46 437.48C1451.37 510.747 1418.74 595.6 1418.74 595.6C1343.43 588.48 1228.26 580.04 1228.26 580.04" fill="#DCEAFF"/>
<path d="M1228.26 580.04C1224.07 541.574 1261.38 463.04 1261.38 463.04L1386.85 488.08L1290.25 386.267C1312.05 341.134 1364.35 272.254 1396.71 231.454C1398.37 343.974 1500.46 437.48 1500.46 437.48C1451.37 510.747 1418.74 595.6 1418.74 595.6C1343.43 588.48 1228.26 580.04 1228.26 580.04" fill="#CBE1FD"/>
<path d="M1367.73 331.92C1376.17 332.787 1382.3 340.334 1381.43 348.787C1380.55 357.227 1373.01 363.36 1364.57 362.48C1356.13 361.614 1349.99 354.054 1350.86 345.614C1351.74 337.174 1359.29 331.04 1367.73 331.92Z" fill="#F99746"/>
<path d="M1549.45 688.627L1667.74 1103.33L2570.51 845.814L2452.22 431.107L1549.45 688.627Z" fill="#82B378"/>
<path d="M2599.91 916.667L1676.7 1086.92L1598.49 662.827L2521.7 492.56L2599.91 916.667Z" fill="#A8D29F"/>
<path d="M2499.3 884.947L2312.82 919.334H2312.78L2290.51 923.44H2290.49L2173.83 944.96L2163.01 946.96L2080.7 962.134L2054.66 966.934L2037.95 970.027L2025.99 972.227L1987.06 979.4L1970.95 982.36L1961.17 984.187L1951.87 985.894L1944.43 987.254L1911.47 993.347L1902.13 995.067L1759.37 1021.39C1737.06 1025.51 1715.65 1010.76 1711.53 988.454L1689.22 867.44L1666.15 742.4C1662.03 720.094 1676.79 698.667 1699.1 694.547L2036.03 632.414L2193.79 603.32L2238.7 595.027H2238.74L2295.23 584.627L2297.07 584.267H2297.1L2439.03 558.107C2461.34 553.987 2482.75 568.734 2486.87 591.04L2532.25 837.094C2533.51 844 2532.98 850.854 2530.97 857.094C2526.49 871.027 2514.7 882.094 2499.3 884.947V884.947ZM2550.59 851.507L2511.21 637.92L2511.18 637.84L2491.79 532.667L2481.73 534.52L2308.83 566.414H2308.81L2306.85 566.787L2177.33 590.654L2160.77 593.707H2160.74L2021.89 619.32L1656.85 686.64L1656.78 686.654L1656.54 686.707L1650.34 687.854L1650.15 687.867L1650.01 687.907L1640.73 689.614L1654.75 765.694L1671.15 854.654L1706.59 1046.83L1906.09 1010.04L1914.97 1008.4L1948.05 1002.29L1955.41 1000.93L1965.11 999.147L1973.98 997.52L1990.9 994.387L2032.18 986.774L2043.89 984.627L2060.13 981.627L2074.3 979.014L2157.15 963.734H2157.18L2174.01 960.627L2187.26 958.174L2301.97 937.027L2405.03 918.027L2442.7 911.08L2557.67 889.867L2550.59 851.507" fill="#82B378"/>
<path d="M2116.57 894.827C2057.66 904.587 2002.01 864.734 1992.25 805.827C1982.5 746.92 2022.35 691.267 2081.25 681.52C2140.15 671.76 2195.81 711.614 2205.57 770.52C2215.31 829.427 2175.47 885.08 2116.57 894.827Z" fill="#82B378"/>
<path d="M1891.3 869.867C1869.55 873.467 1849.01 858.76 1845.41 837.014C1841.81 815.267 1856.51 794.72 1878.26 791.12C1900.01 787.52 1920.55 802.227 1924.15 823.987C1927.75 845.72 1913.05 866.267 1891.3 869.867Z" fill="#82B378"/>
<path d="M2320.57 790.707C2298.82 794.307 2278.27 779.6 2274.67 757.854C2271.07 736.107 2285.78 715.56 2307.53 711.96C2329.27 708.36 2349.82 723.067 2353.42 744.814C2357.02 766.56 2342.31 787.107 2320.57 790.707Z" fill="#82B378"/>
<path d="M1999.83 1067.13L1996.42 1057.96L1973.54 996.294C1973.01 994.854 1972.55 993.387 1972.19 991.934C1967.06 971.534 1978.09 949.96 1998.23 942.48L2000.59 941.6C2022.19 933.587 2046.42 944.694 2054.43 966.28L2075.77 1023.77L2077.31 1027.95L2080.71 1037.12C2088.73 1058.72 2077.62 1082.93 2056.03 1090.95L2053.66 1091.83C2032.07 1099.84 2007.85 1088.73 1999.83 1067.13" fill="#FFB27D"/>
<path d="M1998.81 1017.2C1994.99 1006.91 1988.25 988.28 1986.89 978.334C1986.51 975.52 1988.07 970.347 1993.41 965.56C1996.61 962.68 2001.14 959.934 2007.42 957.934C2010.37 956.987 2013.31 956.214 2016.34 955.894C2019.87 955.547 2023.42 955.68 2026.91 956.32C2030.07 956.907 2032.93 959.08 2034.42 962.24L2034.45 962.294C2039.41 972.894 2045.45 987.174 2048.78 999.694C2051.09 1008.35 2047.22 1017.04 2039.65 1019.72L2036.1 1020.99L2017.98 1027.44C2010.45 1030.11 2001.9 1025.6 1998.81 1017.2" fill="#FFD3B6"/>
<path d="M1998.81 1017.2C1994.99 1006.91 1988.25 988.28 1986.89 978.334C1986.51 975.52 1988.07 970.347 1993.41 965.56C1994.62 965.054 1995.89 964.587 1997.25 964.147C2000.21 963.2 2003.14 962.427 2006.17 962.12C2009.71 961.76 2013.25 961.894 2016.75 962.534C2019.91 963.12 2022.77 965.294 2024.26 968.454L2024.29 968.507C2029.25 979.107 2035.29 993.4 2038.62 1005.91C2040.1 1011.45 2039.05 1017 2036.1 1020.99L2017.98 1027.44C2010.45 1030.11 2001.9 1025.6 1998.81 1017.2Z" fill="#FFC197"/>
<path d="M1913.61 1038.56L1901.07 991.054C1897.26 976.614 1905.95 961.681 1920.39 957.867L1925.77 956.454C1940.21 952.64 1955.14 961.334 1958.94 975.774L1971.49 1023.29C1975.3 1037.72 1966.59 1052.65 1952.17 1056.47L1946.78 1057.88C1932.35 1061.69 1917.42 1053 1913.61 1038.56" fill="#FFB27D"/>
<path d="M1916.13 1012.95C1913.87 1004.21 1909.9 988.44 1909.51 980.187C1909.37 977.187 1911.95 971.187 1919.87 967.334C1921.79 966.387 1924.01 965.574 1926.58 964.961C1928.91 964.401 1931.22 963.987 1933.55 963.961C1936.3 963.921 1939.01 964.294 1941.66 965.067C1944.05 965.774 1946.1 967.787 1947.03 970.48L1947.06 970.52C1950.18 979.587 1953.89 991.747 1955.65 1002.25C1956.86 1009.52 1953.31 1016.37 1947.33 1018.01L1943.05 1019.21L1930.19 1022.76C1924.25 1024.4 1917.97 1020.07 1916.13 1012.95Z" fill="#FFD3B6"/>
<path d="M1916.13 1012.95C1913.87 1004.21 1909.9 988.44 1909.51 980.187C1909.37 977.187 1911.95 971.187 1919.87 967.334C1922.05 966.827 1924.22 966.454 1926.42 966.427C1929.17 966.387 1931.87 966.76 1934.53 967.547C1936.9 968.254 1938.97 970.254 1939.9 972.947L1939.93 973C1943.05 982.054 1946.75 994.227 1948.5 1004.73C1949.51 1010.75 1947.25 1016.48 1943.05 1019.21L1930.19 1022.76C1924.25 1024.4 1917.97 1020.07 1916.13 1012.95" fill="#FFC197"/>
<path d="M2090.71 1066.35C2090.58 1066.01 2090.47 1065.67 2090.37 1065.32L2074.89 1003.04C2068.09 975.654 2083.09 947.507 2108.25 940.48L2121.13 936.88C2145.27 930.134 2170.35 945.241 2178.33 970.694L2183.45 991.267L2193.81 1032.99C2200.62 1060.37 2185.61 1088.52 2160.46 1095.53L2147.57 1099.13C2123.75 1105.79 2099.03 1091.19 2090.71 1066.35" fill="#FFB27D"/>
<path d="M2108.29 1038L2094.91 1007.69L2094.86 1007.51C2094.55 1006.28 2094.31 1005.05 2094.14 1003.84C2094.06 1003.33 2094.01 1002.83 2093.97 1002.32C2093.94 1002.09 2093.94 1001.88 2093.95 1001.67C2094.09 998.347 2097.63 996.094 2100.78 997.56C2106.97 1000.45 2114.15 1001.29 2121.23 999.427L2123.87 998.72L2123.95 998.707L2132.54 996.427C2139.39 994.627 2145.14 990.734 2149.31 985.614C2149.83 985 2150.3 984.36 2150.75 983.72C2154.94 977.787 2164.29 979.374 2166.18 986.374L2166.23 986.574L2170.99 1019.75C2173.15 1027.96 2166.78 1035.8 2158.58 1037.97L2148.79 1040.56L2127.93 1046.07C2119.7 1048.23 2110.45 1046.2 2108.29 1038" fill="#FFD3B6"/>
<path d="M2108.29 1038L2094.91 1007.69L2094.86 1007.51C2094.74 1006.79 2094.38 1004.57 2093.95 1001.67C2094.09 998.347 2097.63 996.094 2100.78 997.56C2106.97 1000.45 2114.15 1001.29 2121.23 999.427L2123.87 998.72L2123.95 998.707L2132.54 996.427C2139.39 994.627 2145.14 990.734 2149.31 985.614C2150.87 986.694 2152.1 988.307 2152.66 990.4L2152.71 990.587L2157.47 1023.77C2159.3 1030.68 2155.06 1037.32 2148.79 1040.56L2127.93 1046.07C2119.7 1048.23 2110.45 1046.2 2108.29 1038" fill="#FFC197"/>
<path d="M1899.06 491.12C1899.06 491.12 1883.79 371.96 1930.33 400.227C1998.14 441.414 2140.15 471.587 2167.49 487.534C2187.77 499.36 2294.66 537.747 2302.45 541.2C2305.81 542.694 2312.29 555.814 2306.03 568.627C2301.75 577.414 2291.09 593.587 2272.57 600.787C2206.15 626.614 2115.69 572.827 2112.79 572.84C2036.98 573.214 1963.31 564.734 1941.9 567.8C1934.45 568.867 1899.06 491.12 1899.06 491.12" fill="#FFB27D"/>
<path d="M2310.39 543.161L2235.35 515.867C2235.35 515.867 2228.03 530.774 2231.63 540.161C2235.22 549.547 2304.73 566.067 2310.39 543.161Z" fill="#FFC197"/>
<path d="M947.527 1470.47L962.461 1482.59C962.461 1482.59 1003.32 1467.93 1012.53 1516.48C1012.53 1516.48 1014.99 1537.17 1001.88 1537.21C988.777 1537.25 994.185 1534.95 975.627 1535.49C957.067 1536.04 941.685 1526.25 938.968 1511.2L930.088 1498.44L947.527 1470.47Z" fill="#EA8E50"/>
<path d="M945.835 1496.49C957.751 1484.05 956.791 1474.85 956.791 1474.85C956.791 1474.85 818.822 1361.89 804.831 1352.69C795.295 1346.43 693.688 1256.35 646.192 1201.43C622.632 1174.19 593.45 1184.76 560.062 1194.33L532.566 1202.23C499.366 1211.75 490.731 1258.19 517.972 1280.75C594.694 1344.29 722.323 1415.77 746.203 1430.8C805.487 1468.09 921.527 1512.4 921.527 1512.4C921.527 1512.4 935.604 1507.17 945.835 1496.49" fill="#1E3D70"/>
<path d="M1103.29 2190.48C1103.29 2190.48 1136.77 2215.57 1188.07 2202.32C1188.07 2202.32 1229.43 2192.89 1238.51 2213.52C1238.51 2213.52 1175.07 2245.75 1159.02 2254.56C1146.91 2261.2 1134.29 2271.69 1125.37 2279.8C1118.3 2286.21 1107.3 2285.35 1101.27 2277.93C1098.49 2274.51 1095.29 2270.43 1091.79 2265.68C1082.01 2252.43 1059.22 2209.6 1059.22 2209.6L1103.29 2190.48" fill="#204272"/>
<path d="M721.28 1273.99C721.28 1144.69 826.092 1039.89 955.383 1039.89C1084.67 1039.89 1189.49 1144.69 1189.49 1273.99C1189.49 1403.28 1084.67 1508.09 955.383 1508.09C826.092 1508.09 721.28 1403.28 721.28 1273.99Z" fill="#E2810E"/>
<path d="M700.857 1273.99C700.857 1144.69 805.668 1039.89 934.96 1039.89C1064.25 1039.89 1169.06 1144.69 1169.06 1273.99C1169.06 1403.28 1064.25 1508.09 934.96 1508.09C805.668 1508.09 700.857 1403.28 700.857 1273.99Z" fill="#FFC76C"/>
<path d="M934.96 1076.19C824.367 1076.19 734.392 1166.16 734.392 1276.76C734.392 1387.35 824.367 1477.32 934.96 1477.32C1045.55 1477.32 1135.53 1387.35 1135.53 1276.76C1135.53 1166.16 1045.55 1076.19 934.96 1076.19ZM934.96 1490.05C877.988 1490.05 824.426 1467.87 784.139 1427.57C743.854 1387.29 721.667 1333.73 721.667 1276.76C721.667 1219.79 743.854 1166.23 784.139 1125.93C824.426 1085.65 877.988 1063.47 934.96 1063.47C991.934 1063.47 1045.49 1085.65 1085.78 1125.93C1126.06 1166.23 1148.25 1219.79 1148.25 1276.76C1148.25 1333.73 1126.06 1387.29 1085.78 1427.57C1045.49 1467.87 991.934 1490.05 934.96 1490.05Z" fill="#FFA412"/>
<path d="M964.324 1338.67C964.869 1334.07 964.7 1329.93 963.82 1326.28C962.939 1322.61 961.191 1319.19 958.584 1315.99C955.973 1312.8 952.483 1309.72 948.112 1306.75C943.74 1303.79 938.332 1300.76 931.885 1297.67C920.809 1292.24 910.82 1286.75 901.916 1281.2C893.008 1275.64 885.541 1269.56 879.511 1262.96C873.477 1256.36 869.067 1248.95 866.275 1240.73C863.484 1232.52 862.725 1223.04 863.999 1212.31C865.103 1203 867.76 1194.71 871.972 1187.43C876.181 1180.16 881.691 1174.04 888.497 1169.07C895.303 1164.11 903.191 1160.35 912.164 1157.8C921.133 1155.25 930.984 1154.12 941.712 1154.39L945.883 1119.24L974.179 1122.6L969.949 1158.24C979.931 1160.76 988.808 1164.53 996.581 1169.56C1004.35 1174.6 1010.75 1180.68 1015.76 1187.83C1020.76 1194.99 1024.31 1203.15 1026.39 1212.33C1028.47 1221.52 1028.86 1231.6 1027.56 1242.55L976.448 1236.48C978.007 1223.33 976.256 1213.16 971.193 1205.95C966.129 1198.75 958.704 1194.56 948.919 1193.4C943.613 1192.76 938.956 1192.96 934.951 1193.99C930.943 1195.01 927.549 1196.67 924.767 1198.95C921.987 1201.23 919.796 1204.04 918.203 1207.41C916.608 1210.77 915.571 1214.48 915.089 1218.53C914.608 1222.59 914.763 1226.33 915.552 1229.75C916.34 1233.17 918.013 1236.45 920.572 1239.6C923.128 1242.73 926.648 1245.81 931.131 1248.84C935.613 1251.88 941.236 1255.12 947.999 1258.6C958.925 1264.23 968.813 1269.84 977.655 1275.44C986.493 1281.04 993.927 1287.17 999.952 1293.83C1005.98 1300.48 1010.39 1307.92 1013.18 1316.13C1015.97 1324.36 1016.73 1333.77 1015.47 1344.4C1014.33 1354.04 1011.62 1362.49 1007.35 1369.76C1003.08 1377.03 997.549 1383.09 990.756 1387.95C983.963 1392.8 976.032 1396.41 966.963 1398.79C957.896 1401.15 947.997 1402.2 937.269 1401.92L933.389 1434.61L905.271 1431.28L909.131 1398.75C899.459 1396.6 890.251 1393.35 881.505 1388.97C872.757 1384.6 865.215 1378.91 858.875 1371.88C852.535 1364.85 847.803 1356.37 844.675 1346.45C841.548 1336.53 840.764 1325 842.323 1311.87L893.433 1317.92C892.511 1325.71 892.829 1332.32 894.395 1337.77C895.957 1343.24 898.381 1347.75 901.667 1351.31C904.951 1354.85 908.847 1357.55 913.356 1359.36C917.863 1361.16 922.532 1362.36 927.369 1362.93C932.909 1363.59 937.857 1363.45 942.212 1362.53C946.565 1361.6 950.307 1360.04 953.437 1357.87C956.565 1355.68 959.041 1352.95 960.865 1349.67C962.691 1346.39 963.843 1342.72 964.324 1338.67" fill="#FFA412"/>
<path d="M1122.94 2177.73C1122.94 2177.73 1102.55 2224.75 1055.49 2216.11C1055.49 2216.11 959.455 2136.8 893.581 2054.41C872.187 2027.65 853.969 2000.57 843.267 1975.79C799.583 1874.64 681.681 1723.8 606.719 1647.35L794.268 1579.49C794.268 1579.49 854.343 1700.35 934.273 1848.77C991.876 1955.73 1059.78 2077.01 1122.94 2177.73Z" fill="#2B478B"/>
<path d="M934.273 1848.77L893.581 2054.41C872.187 2027.65 853.969 2000.57 843.267 1975.79C799.583 1874.64 681.681 1723.8 606.719 1647.35L794.268 1579.49C794.268 1579.49 854.343 1700.35 934.273 1848.77Z" fill="#233862"/>
<path d="M780.969 2217.76C780.969 2217.76 778.926 2255.28 824.399 2260.28C824.399 2260.28 852.545 2261.01 852.618 2284.88L715.669 2284.84C715.669 2284.84 714.454 2275.08 713.523 2254.45C712.807 2238.61 728.875 2197.2 728.875 2197.2L780.969 2217.76" fill="#204272"/>
<path d="M732.752 1579.49C732.752 1579.49 816.304 1671.31 869.343 1836.71C898.199 1926.71 816.451 2152.96 800.515 2231.57C800.515 2231.57 745.676 2236.23 708.18 2221.73C708.18 2221.73 705.33 2059.36 727.26 1934.21C739.532 1864.19 617.251 1784.43 563.818 1657.88C527.467 1571.79 571.688 1573.24 626.034 1571.17L732.752 1579.49" fill="#2B478B"/>
<path d="M636.303 1169.91C589.816 1196.15 494.649 1171.95 494.649 1171.95C494.649 1171.95 533.297 1127.76 515.736 1056.6L552.235 1075.13L591.44 1095.05C591.44 1095.05 593.975 1107.61 595.737 1130.19C596.185 1136 596.587 1142.49 596.865 1149.59C620.735 1156.83 636.303 1169.91 636.303 1169.91" fill="#FFB07B"/>
<path d="M806.76 1574.76C806.76 1582.93 797.348 1586.84 795.348 1587.24C776.598 1590.67 724.246 1611.03 677.086 1615.69C637.376 1619.85 600.509 1615.91 560.004 1607.77C554.64 1606.69 542.049 1603.31 541.155 1598.16C540.037 1592.55 384.921 1281.95 505.504 1148.52C508.336 1145.39 532.14 1151.03 553.907 1156.2C574.011 1160.96 592.451 1158.31 608.916 1151.71L629.329 1162.44C654.4 1176.41 701.833 1226.04 707.385 1264.99C710.203 1284.79 721.528 1299.45 724.805 1316.88C726.022 1323.32 727.264 1329.61 728.53 1335.75C731.001 1347.79 733.548 1359.23 736.166 1370.12C743.257 1399.57 750.745 1424.93 758.096 1446.84C765.919 1470.09 773.593 1489.44 780.446 1505.61C789.338 1526.6 796.85 1542.28 801.544 1554.29C804.86 1562.75 806.76 1569.37 806.76 1574.76" fill="#AEC3FF"/>
<path d="M801.544 1554.29C582.579 1451.13 506.747 1253.04 506.747 1253.04C506.747 1253.04 684.648 1318.67 728.531 1335.75C731.002 1347.79 733.548 1359.23 736.167 1370.12C743.258 1399.57 750.746 1424.93 758.096 1446.84C765.919 1470.09 773.594 1489.44 780.447 1505.61C789.339 1526.6 796.851 1542.28 801.544 1554.29" fill="#91B0F2"/>
<path d="M929.654 1494.51L948.577 1501.45C948.577 1501.45 986.467 1474.65 1010.06 1518.23C1010.06 1518.23 1018.59 1537.27 1005.08 1541.4C991.578 1545.53 996.49 1541.64 977.503 1547.96C958.518 1554.29 939.815 1549.73 932.642 1536.17L919.783 1526.73L929.654 1494.51" fill="#FFB07B"/>
<path d="M945.228 1521.27C952.223 1503.01 955.417 1494.75 955.417 1494.75C955.417 1494.75 812.441 1378.21 797.874 1368.21C787.948 1361.4 689.118 1287.53 640.936 1229.96C617.034 1201.4 579.349 1188.35 542.901 1195.99L512.886 1202.28C476.646 1209.88 464.872 1255.75 492.985 1279.85C572.161 1347.73 705.705 1426.45 730.604 1442.83C792.416 1483.48 929.134 1540.44 929.134 1540.44C929.134 1540.44 939.733 1535.6 945.228 1521.27" fill="#AEC3FF"/>
<path d="M595.737 1130.19C550.024 1132.75 520.296 1095.01 520.296 1095.01C520.296 1095.01 540.965 1083.56 552.235 1075.13L591.44 1095.05C591.44 1095.05 593.975 1107.61 595.737 1130.19Z" fill="#EA8E50"/>
<path d="M615.213 1083.25C615.213 1083.25 545.949 1132.96 515.66 1089.35C485.369 1045.73 456.029 1022.79 498.972 989.2C541.913 955.627 562.157 966.227 575.808 978.334C589.459 990.427 632.449 1069.2 615.213 1083.25" fill="#FFB07B"/>
<path d="M583.126 938.947C580.642 922.187 575.054 910.387 575.054 910.387C575.054 910.387 570.708 928.387 537.803 925.907C504.896 923.427 452.744 929.147 435.36 966.64C434.254 969.027 433.267 971.48 432.391 974C429.244 965.68 428.487 953.227 428.487 953.227C422.234 969.36 428.487 989.56 428.487 989.56H428.49C428.395 990.147 428.318 990.734 428.232 991.32C420.971 997.467 414.871 1016.55 414.871 1016.55C417.063 1011.23 422.408 1007.76 427.172 1005.61C427.024 1034.79 438.858 1063.32 459.626 1071.81C489.996 1084.23 489.752 1074.75 520.296 1095.01C520.296 1095.01 528.49 1084.85 522.902 1078.01C517.314 1071.19 496.204 1061.25 508 1051.32C519.798 1041.39 524.143 1052.56 528.49 1045.73C532.835 1038.91 511.106 1019.04 539.044 1000.41C566.983 981.787 585.608 955.707 583.126 938.947" fill="#233862"/>
<path d="M3149.17 1430.67C3149.17 1430.67 3153.97 1433.97 3155.77 1441.16C3157.15 1446.67 3155.73 1455.17 3155.3 1461.93C3154.38 1476.33 3174.3 1497.48 3187.17 1504.84C3200.05 1512.2 3187.17 1474.19 3187.17 1465C3187.17 1455.8 3190.85 1449.05 3180.43 1428.21C3170.01 1407.37 3149.17 1430.67 3149.17 1430.67Z" fill="#FFB27D"/>
<path d="M2858.69 1078.72C2854.89 1030.35 2907.43 997.187 2948.93 1022.35C2949.78 1022.87 2950.62 1023.39 2951.45 1023.92C3013.57 1063.91 3132.86 1226.51 3150.53 1258.87C3168.94 1292.57 3193.27 1436.53 3193.27 1436.53C3193.27 1436.53 3159.63 1448.84 3143.9 1436.08C3143.9 1436.08 3091.26 1311.24 3071.93 1289.83C3051.54 1267.25 2863.01 1163.04 2861.22 1118.83C2860.74 1107.13 2859.81 1093.08 2858.69 1078.72" fill="#ED7D2B"/>
<path d="M3233.75 2170.73C3233.75 2170.73 3258.79 2193.59 3253.91 2209.83C3249.02 2226.07 3226.42 2236.89 3223.37 2256.75C3220.31 2276.59 3208.1 2287.41 3197.1 2287.41C3186.1 2287.41 3144.67 2287.41 3144.67 2287.41C3144.67 2287.41 3136.58 2273.45 3156.13 2269.24C3175.67 2265.03 3183.05 2241.71 3181.83 2220.05C3180.61 2198.4 3183.66 2169.53 3183.66 2169.53L3225.19 2159.91L3233.75 2170.73" fill="#224275"/>
<path d="M2926.49 2229.84C2926.49 2229.84 2930.98 2281.87 2919.99 2287.28L2779.27 2286.99C2779.27 2286.99 2779.27 2270.75 2801.87 2267.13C2824.47 2263.53 2864.18 2250.29 2870.9 2220.83C2877.62 2191.35 2926.49 2229.84 2926.49 2229.84" fill="#224275"/>
<path d="M2807.69 1495.07C2807.69 1495.07 2815.11 1586.25 2823.83 1695.85C2835.69 1844.73 2849.94 2027.61 2851.35 2062.27C2853.79 2122.43 2863.58 2218.65 2863.58 2218.65C2863.58 2218.65 2886.78 2241.52 2933.22 2231.88C2933.22 2231.88 2974.59 2094.51 2986.42 1949.16C2986.61 1946.77 2986.78 1944.37 2986.97 1941.97C2997.97 1794.01 3015.06 1482.44 3015.06 1482.44L2807.69 1495.07Z" fill="#AEC3FF"/>
<path d="M2807.69 1495.07C2807.69 1495.07 2815.11 1586.25 2823.83 1695.85L2986.42 1949.16C2986.61 1946.77 2986.78 1944.37 2986.97 1941.97C2997.97 1794.01 3015.06 1482.44 3015.06 1482.44L2807.69 1495.07" fill="#91B0F2"/>
<path d="M2841.58 1505.89C2841.58 1505.89 2975.35 1836.11 3063.33 1991.29C3151.29 2146.48 3178.77 2189.79 3178.77 2189.79C3178.77 2189.79 3229.17 2169.93 3233.75 2156.4C3233.75 2156.4 3200.11 1856.81 3141.21 1783.79C3107.91 1742.52 3068.82 1618.68 3066.98 1575.37C3065.15 1532.07 3055.07 1446.35 3055.07 1446.35L2841.58 1505.89Z" fill="#AEC3FF"/>
<path d="M2956.93 1010.56C2956.93 1010.56 2867.3 1056.01 2814.81 1040.85C2814.81 1040.85 2822.01 1031.4 2835.18 1021.37C2843.63 1014.93 2848.02 1004.44 2846.34 993.934C2845.82 990.667 2845.37 987.587 2845.01 984.707C2842.45 966.974 2842.83 954.254 2842.83 954.254L2876.62 928.734L2909.21 901.8C2908.06 975.747 2956.93 1010.56 2956.93 1010.56" fill="#FFB27D"/>
<path d="M3045.97 1472.48C3009.77 1494.39 2975.51 1510.85 2935.42 1520.11C2888.13 1531.32 2830.01 1528.01 2810.55 1530.97C2808.55 1531.24 2806.66 1530.72 2804.89 1529.53C2803.35 1528.75 2794.78 1471.07 2786.18 1398.25C2785.79 1395.32 2785.39 1392.36 2785.23 1389.4L2785.11 1388.43C2781.77 1359.96 2778.83 1330.05 2776.29 1300.09C2774.22 1276.77 2772.51 1253.71 2771.33 1232.04C2769.85 1204.93 2769.22 1180.04 2769.85 1159.56C2770.11 1150.2 2770.66 1141.77 2771.5 1134.47C2776.62 1091.95 2794.41 1061.41 2813.51 1038.79L2835.58 1021.07C2853.97 1022.23 2868.98 1018.59 2886.69 1006.89C2906.05 994.161 2926.93 980.454 2930.87 982.747C2960.54 998.974 2984.69 1041.03 3001.94 1096.57C3011.83 1128.55 3019.42 1164.83 3024.27 1203.25C3025.85 1215.17 3027.17 1227.4 3028.18 1239.59C3028.38 1241.84 3028.55 1244.09 3028.73 1246.31C3031.06 1279.6 3034.86 1310.81 3039.07 1338.68C3044.74 1376.27 3051.19 1407.75 3055.75 1429.92C3058.05 1441.2 3059.79 1449.92 3060.83 1456.17C3061.75 1461.63 3050.83 1469.44 3045.97 1472.48" fill="#F99746"/>
<path d="M2910.37 930.04C2910.37 930.04 2888.33 972.187 2845.01 984.707C2841.1 962.347 2842.25 927.214 2842.25 927.214L2876.62 928.734L2910.37 930.04" fill="#ED985F"/>
<path d="M2816.86 937.44C2816.86 937.44 2897.83 970.56 2917.63 920.654C2937.43 870.734 2961.22 841.387 2910.35 818.134C2859.49 794.867 2841.82 809.96 2831.1 825.014C2820.37 840.067 2796.3 927.534 2816.86 937.44" fill="#FFB27D"/>
<path d="M2971.67 825.72C2972.65 825.014 2974.57 824.72 2978.54 825.4C2978.54 825.4 2975.86 822.72 2971.69 821.654C2972.13 816.014 2971.45 805.694 2962.59 801.187C2962.59 801.187 2967.02 805.04 2966.35 810.987C2958.05 797.32 2936.63 783.84 2870.97 774.094C2784.42 761.254 2799.91 822.12 2809.43 831.134C2818.94 840.16 2850.73 828.734 2870.86 835.08C2890.98 841.427 2888.07 871.947 2894.09 877.614C2900.11 883.28 2899.02 875.454 2909.42 873.374C2919.81 871.28 2917.11 887.08 2912.06 896.6C2907.01 906.107 2916.86 922.454 2916.86 922.454C2916.86 922.454 2916.86 922.454 2933.17 911.387C2949.47 900.32 2975.5 843.56 2972.47 829.48C2972.21 828.24 2971.95 826.987 2971.67 825.72" fill="#2C3A64"/>
<path d="M2921.77 1164.29C2921.77 1164.29 2848.74 1219.87 2771.33 1232.04C2769.85 1204.93 2769.22 1180.04 2769.85 1159.56L2921.77 1164.29" fill="#ED7D2B"/>
<path d="M2489.59 972.467C2488.86 970.947 2489.37 918.987 2463.7 914.827C2446.95 912.12 2403.55 900.534 2403.97 923.84C2404.13 933 2458.45 989.534 2458.45 989.534L2489.59 972.467" fill="#FFB27D"/>
<path d="M2937.15 1073.84C2969.55 1109.96 2947.95 1168.23 2899.71 1173.44C2898.73 1173.55 2897.74 1173.64 2896.74 1173.72C2823.11 1179.69 2613.62 1119.71 2584.63 1103.67C2536.51 1077.05 2454.01 992.854 2454.01 992.854C2454.01 992.854 2473.26 962.641 2493.51 963.227C2493.51 963.227 2603.95 1033.57 2643.5 1042C2670.18 1047.67 2882.5 1009.49 2910.78 1043.53C2918.25 1052.52 2927.54 1063.12 2937.15 1073.84" fill="#F99746"/>
<path d="M3186.55 1443.92C3186.55 1443.92 3190.49 1452.59 3193.27 1459.32C3196.06 1466.07 3197.59 1478.64 3195.45 1477.41C3193.3 1476.19 3185.63 1467.23 3183.19 1462.67C3180.74 1458.09 3186.55 1443.92 3186.55 1443.92" fill="#FFB27D"/>
<path d="M1382.45 1636.39H1559.38V1287.49H1382.45V1636.39Z" fill="#DCE9FA"/>
<path d="M1572.66 1697.45C1464.09 1560.21 1256.59 1402.36 1241.77 1355.47C1236.21 1337.88 1238.43 1326.61 1243.39 1319.41C1248.13 1312.51 1255.89 1308.89 1263.81 1308.89C1268.59 1308.89 1273.43 1310.21 1277.7 1312.92C1463.74 1430.84 1572.66 1697.45 1572.66 1697.45" fill="#DCE9FA"/>
<path d="M1736.77 2226.17C1734.46 2221.57 1732.03 2217.15 1729.46 2212.96L1729.41 2212.88L1729.3 2212.69C1727.58 2210.11 1725.13 2206.44 1722.07 2201.96L1722.06 2201.95L1722.05 2201.92C1714.67 2192.04 1709.58 2184.68 1706.23 2179.31L1706.21 2179.25C1683.86 2148.08 1652.46 2107.87 1634.95 2101.28C1615.99 2170.25 1473.51 2207.51 1383.21 2207.51C1379.67 2207.51 1376.23 2207.45 1372.87 2207.33C1283.55 2204.31 1317.03 2173.57 1356.79 2126.15C1396.55 2078.73 1495.71 2072.59 1521.85 2052.2C1539.03 2038.8 1525.59 2030.6 1498.23 2030.6C1483.98 2030.6 1465.95 2032.81 1446.51 2037.68C1389.71 2051.89 1370.73 2114.33 1279.27 2139C1272.83 2140.73 1266.34 2141.53 1259.86 2141.55C1174.15 2141.55 1087.26 2000.85 1087.26 2000.85C1092.3 2001.52 1097.57 2001.84 1102.99 2001.84C1170.49 2001.84 1263.95 1953.16 1264.57 1931.99C1264.74 1925.79 1252.39 1923.55 1233.75 1923.55C1209.79 1923.55 1175.45 1927.23 1143.87 1930.91C1112.31 1934.59 1083.53 1938.27 1070.71 1938.27C1069.49 1938.27 1068.41 1938.24 1067.49 1938.17C1039.8 1936.04 984.287 1890.83 994.995 1779.69C1005.2 1673.75 1173.78 1671.27 1189.46 1671.27C1190.23 1671.27 1190.62 1671.28 1190.62 1671.28C1190.62 1671.28 1342.5 1834.91 1379.61 1834.91C1379.79 1834.91 1379.97 1834.91 1380.14 1834.91C1416.31 1833.31 1276.62 1668.04 1276.62 1668.04C1286.34 1665.4 1298.59 1664.28 1312.43 1664.28C1394.69 1664.28 1533.26 1704.11 1533.26 1704.11C1533.26 1704.11 1557.89 1912.81 1591.33 1912.81C1592.13 1912.81 1592.93 1912.69 1593.73 1912.44C1628.39 1902 1560.99 1719.88 1560.99 1719.88C1630.78 1728.52 1705.93 1795.44 1705.93 1795.44C1804.85 1908.43 1654.65 2029.61 1654.65 2029.61C1654.65 2029.61 1665.23 2105.24 1726.39 2183.67C1726.39 2183.67 1739.59 2197.81 1754.86 2223.09L1736.77 2226.17V2226.17ZM1637.42 2092.32C1636.63 2095.19 1635.82 2098.16 1634.95 2101.28C1634.95 2101.28 1636.47 2098.13 1637.42 2092.32Z" fill="#CDE0FB"/>
<path d="M2487.57 2037.6C2482.97 2037.6 2477.69 2037.36 2471.69 2036.85C2406.15 2031.35 2297.54 1990.77 2289.34 1936.71C2275.99 1940 2249.57 1966.68 2230.54 1987.52L2230.51 1987.56C2227.61 1991.19 2223.25 1996.13 2217.01 2002.72L2216.99 2002.73L2216.98 2002.75C2214.37 2005.75 2212.26 2008.23 2210.78 2009.96L2210.69 2010.08L2210.65 2010.13C2208.39 2012.99 2206.25 2016 2204.17 2019.16L2191.19 2015.35C2204.54 1998.2 2215.41 1989 2215.41 1989C2266.87 1936.99 2281.15 1882.64 2281.15 1882.64C2281.15 1882.64 2181.87 1781.11 2263.93 1707.09C2263.93 1707.09 2324.62 1664.68 2376.35 1664.41C2376.35 1664.41 2311.37 1791.65 2335.79 1802.28C2336.59 1802.63 2337.39 1802.8 2338.22 1802.8C2362.63 1802.79 2397.99 1655.27 2397.99 1655.27C2397.99 1655.27 2469.79 1643.52 2528.61 1643.52C2552.77 1643.52 2574.74 1645.51 2588.63 1651.11C2588.63 1651.11 2472.27 1759.79 2498.57 1764.08C2499.09 1764.16 2499.63 1764.2 2500.22 1764.2C2529.75 1764.2 2651.19 1660.89 2651.19 1660.89C2651.19 1660.89 2786.55 1674.89 2784.77 1757.03C2783.01 1837.99 2739.78 1866.59 2718.99 1866.57C2718.69 1866.57 2718.39 1866.57 2718.1 1866.56C2701.41 1865.87 2617.13 1840.69 2586.1 1840.69C2579.17 1840.69 2574.9 1841.95 2574.63 1845.01C2573.14 1861.67 2646.98 1910.67 2697.11 1910.67C2697.49 1910.67 2697.86 1910.65 2698.23 1910.65C2698.23 1910.65 2628.14 1998.95 2567.03 1998.95C2559.85 1998.95 2552.79 1997.73 2545.99 1995C2481.3 1969.08 2472.82 1921.81 2432.54 1906.52C2414.37 1899.61 2397.59 1896.28 2386.25 1896.28C2372.47 1896.28 2366.73 1901.2 2376.23 1910.61C2393.58 1927.77 2465.5 1940.83 2490.46 1978.92C2513.13 2013.51 2533.19 2037.6 2487.57 2037.6V2037.6ZM2288.33 1929.95C2288.5 1934.27 2289.34 1936.71 2289.34 1936.71C2288.99 1934.35 2288.65 1932.11 2288.33 1929.95Z" fill="#CDE0FB"/>
<path d="M1451.01 1744.13V1848.07C1451.01 1867.96 1433.98 1884.24 1413.18 1884.24H1335.33C1314.53 1884.24 1297.5 1867.96 1297.5 1848.07V1744.13C1297.5 1724.23 1314.53 1707.95 1335.33 1707.95H1413.18C1433.98 1707.95 1451.01 1724.23 1451.01 1744.13Z" fill="#ED7D2B"/>
<path d="M1451.01 1744.13V1802.03C1451.01 1821.92 1433.98 1838.21 1413.18 1838.21H1335.33C1314.53 1838.21 1297.5 1821.92 1297.5 1802.03V1744.13C1297.5 1724.23 1314.53 1707.95 1335.33 1707.95H1413.18C1433.98 1707.95 1451.01 1724.23 1451.01 1744.13Z" fill="#F99746"/>
<path d="M2313.74 1796.09C2313.74 1849.27 2302.37 1900.05 2281.83 1946.27C2220.22 2084.97 2076.17 2182.88 1909.35 2182.88H1793.75C1786.82 2182.88 1779.94 2182.72 1773.09 2182.39C1688.37 2178.25 1610.34 2148.88 1547.06 2102.01C1506.53 2072.03 1472.05 2034.81 1445.78 1992.51C1409.99 1934.84 1389.39 1867.67 1389.39 1796.09C1389.39 1742.89 1400.75 1692.16 1421.3 1645.91C1482.89 1507.21 1626.95 1409.31 1793.75 1409.31H1909.35C2061.05 1409.31 2193.93 1490.28 2263.09 1609.25C2295.33 1664.72 2313.74 1728.47 2313.74 1796.09" fill="#ED7D2B"/>
<path d="M1977.79 2018.67L1940.07 2252.93C1935.06 2271.08 1949.37 2288.85 1968.99 2288.85H2068.11C2089.37 2288.85 2108.83 2277.49 2118.57 2259.43L2272.63 1965.49L1977.79 2018.67" fill="#ED7D2B"/>
<path d="M1753.42 2288.85H1654.3C1633.05 2288.85 1613.58 2277.51 1603.85 2259.43L1508.57 2098.52L1445.78 1992.51L1752.1 2022.69L1763.17 2106.91L1773.09 2182.39L1782.35 2252.93C1787.35 2271.09 1773.05 2288.85 1753.42 2288.85Z" fill="#ED7D2B"/>
<path d="M2252.86 1751.37C2171.25 1975.89 2094.01 2095.93 1781.15 2106.37C1775.09 2106.59 1769.09 2106.76 1763.17 2106.91C1673.86 2109.25 1601.29 2106.27 1547.06 2102.01C1532.99 2100.92 1520.15 2099.72 1508.57 2098.52L1445.78 1992.51C1409.99 1934.84 1389.39 1867.67 1389.39 1796.09C1389.39 1742.89 1400.75 1692.16 1421.3 1645.91C1482.89 1507.21 1626.95 1409.31 1793.75 1409.31H1909.35C2061.05 1409.31 2193.93 1490.28 2263.09 1609.25C2272.67 1653.87 2265.13 1717.63 2252.86 1751.37Z" fill="#F99746"/>
<path d="M1746.09 1506.21H1587.03C1570.99 1506.21 1557.99 1496.89 1557.99 1485.41V1277.69C1557.99 1274.16 1559.17 1270.92 1561.18 1268.13C1568.95 1257.33 1589.39 1252.88 1604.61 1261.12C1664.99 1293.87 1763.93 1365.01 1775.06 1483.99C1776.18 1496.01 1762.89 1506.21 1746.09 1506.21" fill="#F99746"/>
<path d="M1593.5 1506.21H1587.03C1570.99 1506.21 1557.99 1496.89 1557.99 1485.41V1277.69C1557.99 1274.16 1559.17 1270.92 1561.18 1268.13C1561.86 1268.69 1562.51 1269.29 1563.14 1269.96C1597.69 1306.75 1647.49 1379.03 1633.45 1480.27C1631.41 1494.99 1614.15 1506.21 1593.5 1506.21Z" fill="#ED7D2B"/>
<path d="M1509.67 1645.07C1509.67 1632.55 1520.29 1622.4 1533.37 1622.4C1546.46 1622.4 1557.07 1632.55 1557.07 1645.07C1557.07 1657.59 1546.46 1667.73 1533.37 1667.73C1520.29 1667.73 1509.67 1657.59 1509.67 1645.07Z" fill="#2B478B"/>
<path d="M1987.23 2251.77V2275.99C1987.23 2277.92 1987.93 2279.71 1989.14 2281.2C1990.39 2282.77 1992.22 2284.01 1994.35 2284.69C1995.01 2284.92 1995.69 2285.08 1996.38 2285.17C1997.02 2285.28 1997.67 2285.33 1998.34 2285.33H2457.82C2463.75 2285.33 2468.63 2281.39 2468.93 2276.47C2468.94 2276.32 2468.94 2276.15 2468.94 2275.99V2251.77C2468.94 2251.61 2468.94 2251.45 2468.93 2251.29C2468.63 2246.37 2463.75 2242.43 2457.82 2242.43H1998.34C1997.67 2242.43 1997.02 2242.48 1996.38 2242.59C1995.69 2242.68 1995.01 2242.84 1994.35 2243.07C1992.22 2243.76 1990.39 2244.99 1989.14 2246.56C1987.93 2248.05 1987.23 2249.84 1987.23 2251.77Z" fill="#FFC76C"/>
<path d="M2212.86 2285.33H2459.02C2464.3 2285.33 2468.66 2281.39 2468.93 2276.47C2468.94 2276.32 2468.94 2276.15 2468.94 2275.99V2251.77C2468.94 2251.61 2468.94 2251.45 2468.93 2251.29C2468.66 2246.37 2464.3 2242.43 2459.02 2242.43H2243.09C2239.63 2255.07 2231.61 2272.52 2212.86 2285.33Z" fill="#FFAE39"/>
<path d="M2043.14 2285.33H2048.37V2242.44H2043.14V2285.33Z" fill="#FFA412"/>
<path d="M2060.82 2285.33H2066.03V2242.44H2060.82V2285.33Z" fill="#FFA412"/>
<path d="M2082.02 2285.33H2087.23V2242.44H2082.02V2285.33Z" fill="#FFA412"/>
<path d="M2114.51 2285.33H2119.73V2242.44H2114.51V2285.33Z" fill="#FFA412"/>
<path d="M2148.86 2285.33H2154.09V2242.44H2148.86V2285.33Z" fill="#FFA412"/>
<path d="M2201.54 2285.33H2206.77V2242.44H2201.54V2285.33Z" fill="#FFA412"/>
<path d="M2250.86 2285.33H2256.09V2242.44H2250.86V2285.33Z" fill="#FFA412"/>
<path d="M2294.9 2285.33H2300.13V2242.44H2294.9V2285.33Z" fill="#FFA412"/>
<path d="M2026.31 2285.33H2031.54V2242.44H2026.31V2285.33Z" fill="#FFA412"/>
<path d="M2015.19 2285.33H2020.42V2242.44H2015.19V2285.33Z" fill="#FFA412"/>
<path d="M2004.46 2285.33H2009.69V2242.44H2004.46V2285.33Z" fill="#FFA412"/>
<path d="M1996.38 2242.59V2285.17C1997.02 2285.28 1997.67 2285.33 1998.34 2285.33H2001.61V2242.43H1998.34C1997.67 2242.43 1997.02 2242.48 1996.38 2242.59" fill="#FFA412"/>
<path d="M1989.14 2246.56V2281.2C1990.39 2282.77 1992.22 2284.01 1994.35 2284.69V2243.07C1992.22 2243.76 1990.39 2244.99 1989.14 2246.56Z" fill="#FFA412"/>
<path d="M2036.35 2208.88V2233.09C2036.35 2235.03 2037.06 2236.81 2038.26 2238.31C2039.53 2239.88 2041.34 2241.11 2043.47 2241.8C2044.13 2242.03 2044.81 2242.19 2045.51 2242.28C2046.15 2242.39 2046.81 2242.43 2047.47 2242.43H2506.95C2512.87 2242.43 2517.75 2238.49 2518.06 2233.57C2518.06 2233.41 2518.07 2233.25 2518.07 2233.09V2208.88C2518.07 2208.71 2518.06 2208.55 2518.06 2208.4C2517.75 2203.48 2512.87 2199.53 2506.95 2199.53H2047.47C2047.18 2199.53 2046.89 2199.55 2046.59 2199.57C2046.47 2199.57 2046.34 2199.59 2046.22 2199.6C2046.09 2199.61 2045.94 2199.63 2045.81 2199.65L2045.51 2199.69C2044.81 2199.79 2044.13 2199.95 2043.47 2200.17L2043.19 2200.27L2042.9 2200.37C2042.73 2200.44 2042.53 2200.52 2042.34 2200.6L2042.02 2200.75L2041.74 2200.88C2041.57 2200.97 2041.39 2201.07 2041.22 2201.16C2041.02 2201.28 2040.83 2201.4 2040.65 2201.52C2040.5 2201.61 2040.37 2201.71 2040.22 2201.81L2040.19 2201.84L2039.91 2202.04C2039.63 2202.27 2039.35 2202.49 2039.11 2202.75L2038.89 2202.96L2038.67 2203.19C2038.53 2203.35 2038.39 2203.51 2038.26 2203.67C2037.06 2205.15 2036.35 2206.95 2036.35 2208.88" fill="#FFC76C"/>
<path d="M2261.98 2242.43H2508.14C2513.43 2242.43 2517.78 2238.49 2518.06 2233.57C2518.06 2233.41 2518.07 2233.25 2518.07 2233.09V2208.88C2518.07 2208.71 2518.06 2208.55 2518.06 2208.4C2517.78 2203.48 2513.43 2199.53 2508.14 2199.53H2292.22C2292.13 2199.89 2292.02 2200.24 2291.91 2200.6C2288.31 2213.12 2280.22 2229.99 2261.98 2242.43" fill="#FFAE39"/>
<path d="M2092.26 2242.43H2097.49V2199.53H2092.26V2242.43" fill="#FFA412"/>
<path d="M2109.94 2242.43H2115.17V2199.53H2109.94V2242.43" fill="#FFA412"/>
<path d="M2131.14 2242.43H2136.37V2199.53H2131.14V2242.43" fill="#FFA412"/>
<path d="M2163.63 2242.43H2168.86V2199.53H2163.63V2242.43" fill="#FFA412"/>
<path d="M2197.99 2242.43H2203.22V2199.53H2197.99V2242.43" fill="#FFA412"/>
<path d="M2250.67 2242.43H2255.89V2199.53H2250.67V2242.43" fill="#FFA412"/>
<path d="M2299.99 2242.43H2305.21V2199.53H2299.99V2242.43" fill="#FFA412"/>
<path d="M2344.02 2242.43H2349.25V2199.53H2344.02V2242.43" fill="#FFA412"/>
<path d="M2075.43 2242.43H2080.66V2199.53H2075.43V2242.43" fill="#FFA412"/>
<path d="M2064.33 2242.43H2069.54V2199.53H2064.33V2242.43" fill="#FFA412"/>
<path d="M2053.59 2242.43H2058.81V2199.53H2053.59V2242.43" fill="#FFA412"/>
<path d="M2045.51 2199.68V2242.28C2046.15 2242.37 2046.81 2242.43 2047.47 2242.43H2050.74V2199.53H2047.47C2046.81 2199.53 2046.15 2199.59 2045.51 2199.68Z" fill="#FFA412"/>
<path d="M2038.26 2203.65V2238.31C2039.53 2239.88 2041.34 2241.11 2043.47 2241.8V2200.16C2041.34 2200.85 2039.53 2202.09 2038.26 2203.65Z" fill="#FFA412"/>
<path d="M2012.62 2167.04V2191.27C2012.62 2193.19 2013.31 2194.99 2014.53 2196.47C2015.78 2198.04 2017.61 2199.28 2019.74 2199.96C2020.39 2200.19 2021.07 2200.35 2021.77 2200.44C2022.41 2200.55 2023.06 2200.6 2023.73 2200.6H2483.21C2485.06 2200.6 2486.81 2200.21 2488.34 2199.53C2491.59 2198.11 2493.91 2195.36 2494.27 2192.16C2494.3 2192.01 2494.31 2191.88 2494.31 2191.75C2494.33 2191.59 2494.33 2191.43 2494.33 2191.27V2167.04C2494.33 2166.88 2494.33 2166.72 2494.31 2166.56C2494.02 2161.64 2489.14 2157.71 2483.21 2157.71H2023.73C2023.06 2157.71 2022.41 2157.75 2021.77 2157.85C2021.07 2157.96 2020.39 2158.11 2019.74 2158.33C2017.61 2159.03 2015.78 2160.25 2014.53 2161.83C2013.31 2163.32 2012.62 2165.11 2012.62 2167.04" fill="#FFC76C"/>
<path d="M2238.25 2200.6H2484.41C2486.05 2200.6 2487.61 2200.21 2488.98 2199.53C2491.89 2198.11 2493.95 2195.36 2494.27 2192.16C2494.3 2192.01 2494.31 2191.88 2494.31 2191.75C2494.33 2191.59 2494.33 2191.43 2494.33 2191.27V2167.04C2494.33 2166.88 2494.33 2166.72 2494.31 2166.56C2494.05 2161.64 2489.69 2157.71 2484.41 2157.71H2268.47C2265.11 2169.99 2257.42 2186.84 2239.75 2199.53C2239.26 2199.89 2238.75 2200.24 2238.25 2200.6Z" fill="#FFAE39"/>
<path d="M2068.53 2200.6H2073.75V2157.71H2068.53V2200.6Z" fill="#FFA412"/>
<path d="M2086.21 2200.6H2091.42V2157.71H2086.21V2200.6Z" fill="#FFA412"/>
<path d="M2107.41 2200.6H2112.62V2157.71H2107.41V2200.6Z" fill="#FFA412"/>
<path d="M2139.89 2200.6H2145.11V2157.71H2139.89V2200.6Z" fill="#FFA412"/>
<path d="M2174.25 2200.6H2179.47V2157.71H2174.25V2200.6Z" fill="#FFA412"/>
<path d="M2226.93 2200.6H2232.15V2157.71H2226.93V2200.6Z" fill="#FFA412"/>
<path d="M2276.25 2200.6H2281.47V2157.71H2276.25V2200.6Z" fill="#FFA412"/>
<path d="M2320.29 2200.6H2325.51V2157.71H2320.29V2200.6Z" fill="#FFA412"/>
<path d="M2051.7 2200.6H2056.93V2157.71H2051.7V2200.6Z" fill="#FFA412"/>
<path d="M2040.58 2200.6H2045.81V2157.71H2040.58V2200.6Z" fill="#FFA412"/>
<path d="M2029.85 2200.6H2035.07V2157.71H2029.85V2200.6Z" fill="#FFA412"/>
<path d="M2021.77 2157.85V2200.44C2022.41 2200.55 2023.06 2200.6 2023.73 2200.6H2026.99V2157.71H2023.73C2023.06 2157.71 2022.41 2157.75 2021.77 2157.85Z" fill="#FFA412"/>
<path d="M2014.53 2161.83V2196.47C2015.78 2198.04 2017.61 2199.28 2019.74 2199.96V2158.33C2017.61 2159.03 2015.78 2160.25 2014.53 2161.83Z" fill="#FFA412"/>
<path d="M2001.61 2124.15V2148.36C2001.61 2150.29 2002.31 2152.08 2003.51 2153.57C2004.78 2155.15 2006.59 2156.37 2008.73 2157.07C2009.38 2157.29 2010.06 2157.45 2010.77 2157.55C2011.41 2157.65 2012.06 2157.71 2012.73 2157.71H2472.21C2478.13 2157.71 2483.01 2153.76 2483.31 2148.84C2483.31 2148.68 2483.33 2148.52 2483.33 2148.36V2124.15C2483.33 2123.99 2483.31 2123.83 2483.31 2123.67C2483.03 2119.12 2478.83 2115.4 2473.53 2114.87C2473.09 2114.83 2472.66 2114.8 2472.21 2114.8H2012.73C2012.06 2114.8 2011.41 2114.85 2010.77 2114.96C2010.06 2115.05 2009.38 2115.21 2008.73 2115.44C2006.59 2116.12 2004.78 2117.36 2003.51 2118.93C2002.31 2120.43 2001.61 2122.21 2001.61 2124.15" fill="#FFC76C"/>
<path d="M2227.23 2157.71H2473.39C2478.69 2157.71 2483.03 2153.76 2483.31 2148.84C2483.31 2148.68 2483.33 2148.52 2483.33 2148.36V2124.15C2483.33 2123.99 2483.31 2123.83 2483.31 2123.67C2483.06 2119.12 2479.31 2115.4 2474.57 2114.87C2474.19 2114.83 2473.79 2114.8 2473.39 2114.8H2257.47L2257.45 2114.87C2253.99 2127.49 2245.95 2144.92 2227.23 2157.71" fill="#FFAE39"/>
<path d="M2057.51 2157.71H2062.74V2114.8H2057.51V2157.71Z" fill="#FFA412"/>
<path d="M2075.19 2157.71H2080.42V2114.8H2075.19V2157.71Z" fill="#FFA412"/>
<path d="M2096.39 2157.71H2101.62V2114.8H2096.39V2157.71Z" fill="#FFA412"/>
<path d="M2128.89 2157.71H2134.11V2114.8H2128.89V2157.71Z" fill="#FFA412"/>
<path d="M2163.25 2157.71H2168.47V2114.8H2163.25V2157.71Z" fill="#FFA412"/>
<path d="M2215.93 2157.71H2221.14V2114.8H2215.93V2157.71Z" fill="#FFA412"/>
<path d="M2265.25 2157.71H2270.46V2114.8H2265.25V2157.71Z" fill="#FFA412"/>
<path d="M2309.27 2157.71H2314.5V2114.8H2309.27V2157.71Z" fill="#FFA412"/>
<path d="M2040.69 2157.71H2045.91V2114.8H2040.69V2157.71Z" fill="#FFA412"/>
<path d="M2029.58 2157.71H2034.79V2114.8H2029.58V2157.71Z" fill="#FFA412"/>
<path d="M2018.85 2157.71H2024.06V2114.8H2018.85V2157.71Z" fill="#FFA412"/>
<path d="M2010.77 2114.95V2157.55C2011.41 2157.65 2012.06 2157.69 2012.73 2157.69H2015.99V2114.8H2012.73C2012.06 2114.8 2011.41 2114.85 2010.77 2114.95Z" fill="#FFA412"/>
<path d="M2003.51 2118.93V2153.57C2004.78 2155.15 2006.59 2156.37 2008.73 2157.07V2115.43C2006.59 2116.12 2004.78 2117.36 2003.51 2118.93Z" fill="#FFA412"/>
<path d="M2035.39 2081.32V2105.53C2035.39 2107.47 2036.09 2109.25 2037.3 2110.75C2038.57 2112.32 2040.38 2113.55 2042.51 2114.24C2043.17 2114.45 2043.85 2114.61 2044.54 2114.72C2044.77 2114.76 2044.98 2114.79 2045.19 2114.8C2045.31 2114.81 2045.43 2114.83 2045.55 2114.84C2045.67 2114.85 2045.79 2114.85 2045.91 2114.85C2046.11 2114.87 2046.31 2114.87 2046.51 2114.87H2505.98C2511.91 2114.87 2516.79 2110.93 2517.09 2106.01C2517.1 2105.85 2517.1 2105.69 2517.1 2105.53V2081.32C2517.1 2081.15 2517.1 2080.99 2517.09 2080.83C2517.09 2080.69 2517.07 2080.57 2517.06 2080.44C2516.62 2076.49 2513.21 2073.23 2508.73 2072.27L2508.39 2072.2C2507.62 2072.05 2506.81 2071.97 2505.98 2071.97H2046.51C2046.17 2071.97 2045.83 2071.99 2045.51 2072.01C2045.37 2072.03 2045.22 2072.04 2045.07 2072.05H2045.06C2044.89 2072.08 2044.71 2072.11 2044.54 2072.13C2043.85 2072.23 2043.17 2072.39 2042.51 2072.6C2040.38 2073.29 2038.57 2074.53 2037.3 2076.11C2036.09 2077.59 2035.39 2079.39 2035.39 2081.32" fill="#FFC76C"/>
<path d="M2261.02 2114.87H2507.18C2512.46 2114.87 2516.82 2110.93 2517.09 2106.01C2517.1 2105.85 2517.1 2105.69 2517.1 2105.53V2081.32C2517.1 2081.15 2517.1 2080.99 2517.09 2080.83C2517.09 2080.69 2517.07 2080.57 2517.06 2080.44C2516.66 2076.4 2513.49 2073.09 2509.37 2072.21C2509.22 2072.17 2509.07 2072.15 2508.94 2072.13C2508.37 2072.03 2507.78 2071.97 2507.18 2071.97H2291.25L2291.17 2072.28C2287.67 2084.87 2279.63 2102.11 2261.11 2114.8L2261.02 2114.87" fill="#FFAE39"/>
<path d="M2091.3 2114.87H2096.53V2071.97H2091.3V2114.87Z" fill="#FFA412"/>
<path d="M2108.98 2114.87H2114.19V2071.97H2108.98V2114.87Z" fill="#FFA412"/>
<path d="M2130.18 2114.87H2135.39V2071.97H2130.18V2114.87Z" fill="#FFA412"/>
<path d="M2162.67 2114.87H2167.89V2071.97H2162.67V2114.87Z" fill="#FFA412"/>
<path d="M2197.03 2114.87H2202.25V2071.97H2197.03V2114.87Z" fill="#FFA412"/>
<path d="M2249.7 2114.87H2254.93V2071.97H2249.7V2114.87Z" fill="#FFA412"/>
<path d="M2299.02 2114.87H2304.25V2071.97H2299.02V2114.87Z" fill="#FFA412"/>
<path d="M2343.06 2114.87H2348.29V2071.97H2343.06V2114.87Z" fill="#FFA412"/>
<path d="M2074.47 2114.87H2079.7V2071.97H2074.47V2114.87Z" fill="#FFA412"/>
<path d="M2063.35 2114.87H2068.58V2071.97H2063.35V2114.87Z" fill="#FFA412"/>
<path d="M2052.62 2114.87H2057.85V2071.97H2052.62V2114.87Z" fill="#FFA412"/>
<path d="M2044.54 2072.12V2114.72C2045.18 2114.81 2045.83 2114.87 2046.51 2114.87H2049.77V2071.97H2046.51C2045.83 2071.97 2045.18 2072.03 2044.54 2072.12Z" fill="#FFA412"/>
<path d="M2037.3 2076.09V2110.75C2038.57 2112.32 2040.38 2113.55 2042.51 2114.24V2072.6C2040.38 2073.29 2038.57 2074.53 2037.3 2076.09" fill="#FFA412"/>
<path d="M2036.35 2038.72V2062.95C2036.35 2064.88 2037.06 2066.67 2038.26 2068.16C2039.53 2069.73 2041.34 2070.96 2043.47 2071.65C2043.99 2071.83 2044.53 2071.96 2045.06 2072.05H2045.07C2045.22 2072.08 2045.37 2072.11 2045.51 2072.13C2046.15 2072.23 2046.81 2072.28 2047.47 2072.28H2506.95C2507.43 2072.28 2507.93 2072.25 2508.39 2072.2C2508.58 2072.19 2508.75 2072.16 2508.94 2072.13C2513.93 2071.37 2517.79 2067.77 2518.06 2063.43C2518.06 2063.27 2518.07 2063.11 2518.07 2062.95V2038.72C2518.07 2038.56 2518.06 2038.4 2518.06 2038.24C2517.75 2033.33 2512.87 2029.39 2506.95 2029.39H2047.47C2047.18 2029.39 2046.89 2029.4 2046.59 2029.41C2046.47 2029.43 2046.34 2029.44 2046.22 2029.45C2046.09 2029.45 2045.94 2029.48 2045.81 2029.49L2045.51 2029.53C2044.81 2029.64 2044.13 2029.8 2043.47 2030.01L2043.19 2030.12L2042.9 2030.21C2042.71 2030.29 2042.53 2030.37 2042.34 2030.44C2042.14 2030.53 2041.94 2030.63 2041.74 2030.73C2041.57 2030.83 2041.39 2030.92 2041.22 2031.01C2041.02 2031.12 2040.83 2031.24 2040.65 2031.37C2040.5 2031.47 2040.37 2031.56 2040.22 2031.67L2040.19 2031.68L2039.91 2031.89C2039.63 2032.11 2039.35 2032.35 2039.11 2032.59L2038.89 2032.81L2038.67 2033.04C2038.53 2033.19 2038.39 2033.35 2038.26 2033.51C2037.06 2035 2036.35 2036.79 2036.35 2038.72" fill="#FFC76C"/>
<path d="M2261.98 2072.28H2508.14C2508.34 2072.28 2508.54 2072.28 2508.73 2072.27C2508.94 2072.25 2509.15 2072.24 2509.37 2072.21C2514.09 2071.67 2517.81 2067.96 2518.06 2063.43C2518.06 2063.27 2518.07 2063.11 2518.07 2062.95V2038.72C2518.07 2038.56 2518.06 2038.4 2518.06 2038.24C2517.78 2033.33 2513.43 2029.39 2508.14 2029.39H2292.22C2292.13 2029.73 2292.02 2030.09 2291.91 2030.44C2288.34 2042.87 2280.34 2059.56 2262.42 2071.97C2262.27 2072.08 2262.13 2072.17 2261.98 2072.28" fill="#FFAE39"/>
<path d="M2092.26 2072.28H2097.49V2029.39H2092.26V2072.28Z" fill="#FFA412"/>
<path d="M2109.94 2072.28H2115.17V2029.39H2109.94V2072.28Z" fill="#FFA412"/>
<path d="M2131.14 2072.28H2136.37V2029.39H2131.14V2072.28Z" fill="#FFA412"/>
<path d="M2163.63 2072.28H2168.86V2029.39H2163.63V2072.28Z" fill="#FFA412"/>
<path d="M2197.99 2072.28H2203.22V2029.39H2197.99V2072.28Z" fill="#FFA412"/>
<path d="M2250.67 2072.28H2255.89V2029.39H2250.67V2072.28Z" fill="#FFA412"/>
<path d="M2299.99 2072.28H2305.21V2029.39H2299.99V2072.28Z" fill="#FFA412"/>
<path d="M2344.02 2072.28H2349.25V2029.39H2344.02V2072.28Z" fill="#FFA412"/>
<path d="M2075.43 2072.28H2080.66V2029.39H2075.43V2072.28Z" fill="#FFA412"/>
<path d="M2064.33 2072.28H2069.54V2029.39H2064.33V2072.28Z" fill="#FFA412"/>
<path d="M2053.59 2072.28H2058.81V2029.39H2053.59V2072.28Z" fill="#FFA412"/>
<path d="M2045.51 2029.53V2072.13C2046.15 2072.23 2046.81 2072.28 2047.47 2072.28H2050.74V2029.39H2047.47C2046.81 2029.39 2046.15 2029.44 2045.51 2029.53Z" fill="#FFA412"/>
<path d="M2038.26 2033.51V2068.16C2039.53 2069.73 2041.34 2070.96 2043.47 2071.65V2030.01C2041.34 2030.71 2039.53 2031.95 2038.26 2033.51" fill="#FFA412"/>
<path d="M2012.62 1996.88V2021.11C2012.62 2023.04 2013.31 2024.83 2014.53 2026.32C2015.78 2027.89 2017.61 2029.12 2019.74 2029.81C2020.39 2030.03 2021.07 2030.19 2021.77 2030.29C2022.41 2030.39 2023.06 2030.44 2023.73 2030.44H2483.21C2485.06 2030.44 2486.81 2030.07 2488.34 2029.39C2491.59 2027.96 2493.91 2025.21 2494.27 2022C2494.3 2021.87 2494.31 2021.73 2494.31 2021.59C2494.33 2021.43 2494.33 2021.27 2494.33 2021.11V1996.88C2494.33 1996.72 2494.33 1996.56 2494.31 1996.4C2494.02 1991.49 2489.14 1987.55 2483.21 1987.55H2023.73C2023.06 1987.55 2022.41 1987.6 2021.77 1987.69C2021.07 1987.8 2020.39 1987.96 2019.74 1988.17C2017.61 1988.87 2015.78 1990.11 2014.53 1991.67C2013.31 1993.16 2012.62 1994.96 2012.62 1996.88" fill="#FFC76C"/>
<path d="M2238.25 2030.44H2484.41C2486.05 2030.44 2487.61 2030.07 2488.98 2029.39C2491.89 2027.96 2493.95 2025.21 2494.27 2022C2494.3 2021.87 2494.31 2021.73 2494.31 2021.59C2494.33 2021.43 2494.33 2021.27 2494.33 2021.11V1996.88C2494.33 1996.72 2494.33 1996.56 2494.31 1996.4C2494.05 1991.49 2489.69 1987.55 2484.41 1987.55H2268.47C2265.11 1999.83 2257.42 2016.69 2239.75 2029.39C2239.26 2029.75 2238.75 2030.09 2238.25 2030.44" fill="#FFAE39"/>
<path d="M2068.53 2030.44H2073.75V1987.55H2068.53V2030.44Z" fill="#FFA412"/>
<path d="M2086.21 2030.44H2091.42V1987.55H2086.21V2030.44Z" fill="#FFA412"/>
<path d="M2107.41 2030.44H2112.62V1987.55H2107.41V2030.44Z" fill="#FFA412"/>
<path d="M2139.89 2030.44H2145.11V1987.55H2139.89V2030.44Z" fill="#FFA412"/>
<path d="M2174.25 2030.44H2179.47V1987.55H2174.25V2030.44Z" fill="#FFA412"/>
<path d="M2226.93 2030.44H2232.15V1987.55H2226.93V2030.44Z" fill="#FFA412"/>
<path d="M2276.25 2030.44H2281.47V1987.55H2276.25V2030.44Z" fill="#FFA412"/>
<path d="M2320.29 2030.44H2325.51V1987.55H2320.29V2030.44Z" fill="#FFA412"/>
<path d="M2051.7 2030.44H2056.93V1987.55H2051.7V2030.44Z" fill="#FFA412"/>
<path d="M2040.58 2030.44H2045.81V1987.55H2040.58V2030.44Z" fill="#FFA412"/>
<path d="M2029.85 2030.44H2035.07V1987.55H2029.85V2030.44Z" fill="#FFA412"/>
<path d="M2021.77 1987.71V2030.29C2022.41 2030.4 2023.06 2030.44 2023.73 2030.44H2026.99V1987.55H2023.73C2023.06 1987.55 2022.41 1987.6 2021.77 1987.71Z" fill="#FFA412"/>
<path d="M2014.53 1991.67V2026.32C2015.78 2027.89 2017.61 2029.12 2019.74 2029.81V1988.17C2017.61 1988.87 2015.78 1990.11 2014.53 1991.67Z" fill="#FFA412"/>
<path d="M1975.07 1953.99V1978.21C1975.07 1980.15 1975.77 1981.93 1976.97 1983.43C1978.23 1985 1980.06 1986.23 1982.19 1986.92C1982.85 1987.13 1983.53 1987.29 1984.22 1987.4C1984.86 1987.49 1985.51 1987.55 1986.18 1987.55H2445.66C2451.59 1987.55 2456.47 1983.6 2456.77 1978.69C2456.78 1978.53 2456.78 1978.37 2456.78 1978.21V1953.99C2456.78 1953.83 2456.78 1953.67 2456.77 1953.51C2456.49 1948.97 2452.3 1945.25 2446.98 1944.72C2446.55 1944.68 2446.1 1944.65 2445.66 1944.65H1986.18C1985.51 1944.65 1984.86 1944.71 1984.22 1944.8C1983.53 1944.91 1982.85 1945.07 1982.19 1945.28C1980.06 1945.97 1978.23 1947.21 1976.97 1948.77C1975.77 1950.27 1975.07 1952.05 1975.07 1953.99" fill="#FFC76C"/>
<path d="M2200.7 1987.55H2446.86C2452.14 1987.55 2456.5 1983.6 2456.77 1978.69C2456.78 1978.53 2456.78 1978.37 2456.78 1978.21V1953.99C2456.78 1953.83 2456.78 1953.67 2456.77 1953.51C2456.53 1948.97 2452.78 1945.25 2448.03 1944.72C2447.65 1944.68 2447.26 1944.65 2446.86 1944.65H2230.93L2230.9 1944.72C2227.45 1957.35 2219.41 1974.76 2200.7 1987.55Z" fill="#FFAE39"/>
<path d="M2030.98 1987.55H2036.19V1944.65H2030.98V1987.55Z" fill="#FFA412"/>
<path d="M2048.65 1987.55H2053.87V1944.65H2048.65V1987.55Z" fill="#FFA412"/>
<path d="M2069.85 1987.55H2075.07V1944.65H2069.85V1987.55Z" fill="#FFA412"/>
<path d="M2102.34 1987.55H2107.57V1944.65H2102.34V1987.55Z" fill="#FFA412"/>
<path d="M2136.7 1987.55H2141.93V1944.65H2136.7V1987.55Z" fill="#FFA412"/>
<path d="M2189.38 1987.55H2194.59V1944.65H2189.38V1987.55Z" fill="#FFA412"/>
<path d="M2238.7 1987.55H2243.91V1944.65H2238.7V1987.55Z" fill="#FFA412"/>
<path d="M2282.74 1987.55H2287.95V1944.65H2282.74V1987.55Z" fill="#FFA412"/>
<path d="M2014.15 1987.55H2019.37V1944.65H2014.15V1987.55Z" fill="#FFA412"/>
<path d="M2003.03 1987.55H2008.26V1944.65H2003.03V1987.55Z" fill="#FFA412"/>
<path d="M1992.3 1987.55H1997.53V1944.65H1992.3V1987.55Z" fill="#FFA412"/>
<path d="M1984.22 1944.8V1987.4C1984.86 1987.49 1985.51 1987.55 1986.18 1987.55H1989.45V1944.65H1986.18C1985.51 1944.65 1984.86 1944.71 1984.22 1944.8Z" fill="#FFA412"/>
<path d="M1976.97 1948.77V1983.43C1978.23 1985 1980.06 1986.23 1982.19 1986.92V1945.28C1980.06 1945.97 1978.23 1947.21 1976.97 1948.77Z" fill="#FFA412"/>
<path d="M2035.39 1911.16V1935.39C2035.39 1937.32 2036.09 1939.11 2037.3 1940.6C2038.57 1942.16 2040.38 1943.4 2042.51 1944.09C2043.17 1944.31 2043.85 1944.47 2044.54 1944.57C2044.77 1944.6 2044.98 1944.64 2045.19 1944.65C2045.37 1944.68 2045.54 1944.68 2045.71 1944.69L2045.97 1944.71C2046.14 1944.72 2046.33 1944.72 2046.51 1944.72H2505.98C2511.91 1944.72 2516.79 1940.77 2517.09 1935.87C2517.1 1935.71 2517.1 1935.55 2517.1 1935.39V1911.16C2517.1 1911 2517.1 1910.84 2517.09 1910.68C2516.79 1905.77 2511.91 1901.83 2505.98 1901.83H2046.51C2046.31 1901.83 2046.11 1901.83 2045.91 1901.84C2045.45 1901.87 2044.99 1901.91 2044.54 1901.97C2043.85 1902.08 2043.17 1902.24 2042.51 1902.45C2042.18 1902.56 2041.86 1902.68 2041.55 1902.81C2041.35 1902.89 2041.17 1902.99 2040.98 1903.08L2040.91 1903.11C2040.73 1903.2 2040.54 1903.29 2040.35 1903.4L2040.26 1903.45C2040.09 1903.55 2039.93 1903.65 2039.77 1903.76C2039.37 1904 2039.01 1904.27 2038.66 1904.56L2038.34 1904.84L2038.29 1904.89L2038.1 1905.07L2038.06 1905.11L2037.74 1905.44C2037.58 1905.61 2037.43 1905.77 2037.3 1905.95C2036.09 1907.44 2035.39 1909.23 2035.39 1911.16" fill="#FFC76C"/>
<path d="M2261.02 1944.72H2507.18C2512.46 1944.72 2516.82 1940.77 2517.09 1935.87C2517.1 1935.71 2517.1 1935.55 2517.1 1935.39V1911.16C2517.1 1911 2517.1 1910.84 2517.09 1910.68C2516.82 1905.77 2512.46 1901.83 2507.18 1901.83H2291.25C2291.17 1902.15 2291.07 1902.48 2290.97 1902.81C2287.38 1915.33 2279.31 1932.19 2261.11 1944.65L2261.02 1944.72Z" fill="#FFAE39"/>
<path d="M2091.3 1944.72H2096.53V1901.83H2091.3V1944.72Z" fill="#FFA412"/>
<path d="M2108.98 1944.72H2114.19V1901.83H2108.98V1944.72Z" fill="#FFA412"/>
<path d="M2130.18 1944.72H2135.39V1901.83H2130.18V1944.72Z" fill="#FFA412"/>
<path d="M2162.67 1944.72H2167.89V1901.83H2162.67V1944.72Z" fill="#FFA412"/>
<path d="M2197.03 1944.72H2202.25V1901.83H2197.03V1944.72Z" fill="#FFA412"/>
<path d="M2249.7 1944.72H2254.93V1901.83H2249.7V1944.72Z" fill="#FFA412"/>
<path d="M2299.02 1944.72H2304.25V1901.83H2299.02V1944.72Z" fill="#FFA412"/>
<path d="M2343.06 1944.72H2348.29V1901.83H2343.06V1944.72Z" fill="#FFA412"/>
<path d="M2074.47 1944.72H2079.7V1901.83H2074.47V1944.72Z" fill="#FFA412"/>
<path d="M2063.35 1944.72H2068.58V1901.83H2063.35V1944.72Z" fill="#FFA412"/>
<path d="M2052.62 1944.72H2057.85V1901.83H2052.62V1944.72Z" fill="#FFA412"/>
<path d="M2044.54 1901.97V1944.57C2045.18 1944.67 2045.83 1944.72 2046.51 1944.72H2049.77V1901.83H2046.51C2045.83 1901.83 2045.18 1901.88 2044.54 1901.97" fill="#FFA412"/>
<path d="M2037.3 1905.95V1940.6C2038.57 1942.16 2040.38 1943.4 2042.51 1944.09V1902.45C2040.38 1903.15 2038.57 1904.37 2037.3 1905.95" fill="#FFA412"/>
<path d="M2001.61 1869.25V1893.48C2001.61 1895.41 2002.31 1897.2 2003.51 1898.69C2004.78 1900.27 2006.59 1901.49 2008.73 1902.19C2009.38 1902.4 2010.06 1902.56 2010.77 1902.67C2011.41 1902.76 2012.06 1902.81 2012.73 1902.81H2472.21C2473.99 1902.81 2475.67 1902.47 2477.17 1901.83C2480.53 1900.41 2482.91 1897.61 2483.27 1894.35C2483.29 1894.21 2483.3 1894.09 2483.31 1893.96C2483.31 1893.8 2483.33 1893.64 2483.33 1893.48V1869.25C2483.33 1869.09 2483.31 1868.93 2483.31 1868.77C2483.03 1864.23 2478.83 1860.52 2473.53 1859.99C2473.09 1859.95 2472.66 1859.92 2472.21 1859.92H2012.73C2012.06 1859.92 2011.41 1859.97 2010.77 1860.07C2010.06 1860.17 2009.38 1860.33 2008.73 1860.55C2006.59 1861.24 2004.78 1862.48 2003.51 1864.04C2002.31 1865.53 2001.61 1867.32 2001.61 1869.25" fill="#FFC76C"/>
<path d="M2227.23 1902.81H2473.39C2474.99 1902.81 2476.5 1902.47 2477.83 1901.83C2480.82 1900.41 2482.95 1897.61 2483.27 1894.35C2483.29 1894.21 2483.3 1894.09 2483.31 1893.96C2483.31 1893.8 2483.33 1893.64 2483.33 1893.48V1869.25C2483.33 1869.09 2483.31 1868.93 2483.31 1868.77C2483.06 1864.24 2479.31 1860.52 2474.57 1859.99C2474.19 1859.95 2473.79 1859.92 2473.39 1859.92H2257.47L2257.45 1859.99C2254.09 1872.28 2246.35 1889.15 2228.65 1901.83C2228.19 1902.16 2227.71 1902.49 2227.23 1902.81Z" fill="#FFAE39"/>
<path d="M2057.51 1902.81H2062.74V1859.92H2057.51V1902.81Z" fill="#FFA412"/>
<path d="M2075.19 1902.81H2080.42V1859.92H2075.19V1902.81Z" fill="#FFA412"/>
<path d="M2096.39 1902.81H2101.62V1859.92H2096.39V1902.81Z" fill="#FFA412"/>
<path d="M2128.89 1902.81H2134.11V1859.92H2128.89V1902.81Z" fill="#FFA412"/>
<path d="M2163.25 1902.81H2168.47V1859.92H2163.25V1902.81Z" fill="#FFA412"/>
<path d="M2215.93 1902.81H2221.14V1859.92H2215.93V1902.81Z" fill="#FFA412"/>
<path d="M2265.25 1902.81H2270.46V1859.92H2265.25V1902.81Z" fill="#FFA412"/>
<path d="M2309.27 1902.81H2314.5V1859.92H2309.27V1902.81Z" fill="#FFA412"/>
<path d="M2040.69 1902.81H2045.91V1859.92H2040.69V1902.81Z" fill="#FFA412"/>
<path d="M2029.58 1902.81H2034.79V1859.92H2029.58V1902.81Z" fill="#FFA412"/>
<path d="M2018.85 1902.81H2024.06V1859.92H2018.85V1902.81Z" fill="#FFA412"/>
<path d="M2010.77 1860.07V1902.67C2011.41 1902.76 2012.06 1902.81 2012.73 1902.81H2015.99V1859.92H2012.73C2012.06 1859.92 2011.41 1859.97 2010.77 1860.07" fill="#FFA412"/>
<path d="M2003.51 1864.04V1898.69C2004.78 1900.27 2006.59 1901.49 2008.73 1902.19V1860.55C2006.59 1861.24 2004.78 1862.48 2003.51 1864.04" fill="#FFA412"/>
<path d="M1987.23 1826.43V1850.65C1987.23 1852.59 1987.93 1854.37 1989.14 1855.87C1990.39 1857.44 1992.22 1858.67 1994.35 1859.36C1995.01 1859.57 1995.69 1859.73 1996.38 1859.84C1996.61 1859.87 1996.82 1859.91 1997.03 1859.92C1997.14 1859.93 1997.27 1859.95 1997.39 1859.95C1997.51 1859.96 1997.63 1859.97 1997.75 1859.97C1997.95 1859.99 1998.15 1859.99 1998.34 1859.99H2457.82C2463.75 1859.99 2468.63 1856.04 2468.93 1851.13C2468.94 1850.97 2468.94 1850.81 2468.94 1850.65V1826.43C2468.94 1826.27 2468.94 1826.11 2468.93 1825.95C2468.63 1821.04 2463.75 1817.09 2457.82 1817.09H1998.34C1997.67 1817.09 1997.02 1817.15 1996.38 1817.24C1995.69 1817.35 1995.01 1817.51 1994.35 1817.72C1992.22 1818.41 1990.39 1819.65 1989.14 1821.21C1987.93 1822.71 1987.23 1824.49 1987.23 1826.43" fill="#FFC76C"/>
<path d="M2212.86 1859.99H2459.02C2464.3 1859.99 2468.66 1856.04 2468.93 1851.13C2468.94 1850.97 2468.94 1850.81 2468.94 1850.65V1826.43C2468.94 1826.27 2468.94 1826.11 2468.93 1825.95C2468.66 1821.04 2464.3 1817.09 2459.02 1817.09H2243.09C2239.65 1829.71 2231.63 1847.12 2212.95 1859.92L2212.86 1859.99Z" fill="#FFAE39"/>
<path d="M2043.14 1859.99H2048.37V1817.09H2043.14V1859.99Z" fill="#FFA412"/>
<path d="M2060.82 1859.99H2066.03V1817.09H2060.82V1859.99Z" fill="#FFA412"/>
<path d="M2082.02 1859.99H2087.23V1817.09H2082.02V1859.99Z" fill="#FFA412"/>
<path d="M2114.5 1859.99H2119.73V1817.09H2114.5V1859.99Z" fill="#FFA412"/>
<path d="M2148.86 1859.99H2154.09V1817.09H2148.86V1859.99Z" fill="#FFA412"/>
<path d="M2201.54 1859.99H2206.77V1817.09H2201.54V1859.99Z" fill="#FFA412"/>
<path d="M2250.86 1859.99H2256.09V1817.09H2250.86V1859.99Z" fill="#FFA412"/>
<path d="M2294.9 1817.09V1859.99H2300.13V1817.09H2294.9Z" fill="#FFA412"/>
<path d="M2026.31 1859.99H2031.54V1817.09H2026.31V1859.99Z" fill="#FFA412"/>
<path d="M2015.19 1859.99H2020.42V1817.09H2015.19V1859.99Z" fill="#FFA412"/>
<path d="M2004.46 1859.99H2009.69V1817.09H2004.46V1859.99Z" fill="#FFA412"/>
<path d="M1996.38 1817.24V1859.84C1997.02 1859.93 1997.67 1859.99 1998.34 1859.99H2001.61V1817.09H1998.34C1997.67 1817.09 1997.02 1817.15 1996.38 1817.24" fill="#FFA412"/>
<path d="M1989.14 1821.21V1855.87C1990.39 1857.43 1992.22 1858.67 1994.35 1859.36V1817.72C1992.22 1818.41 1990.39 1819.65 1989.14 1821.21" fill="#FFA412"/>
<path d="M2758.7 2065.23C2758.7 1944.63 2660.93 1846.85 2540.33 1846.85C2419.73 1846.85 2321.95 1944.63 2321.95 2065.23C2321.95 2185.83 2419.73 2283.6 2540.33 2283.6C2660.93 2283.6 2758.7 2185.83 2758.7 2065.23" fill="#E2810E"/>
<path d="M2777.75 2065.23C2777.75 1944.63 2679.98 1846.85 2559.38 1846.85C2438.78 1846.85 2341.01 1944.63 2341.01 2065.23C2341.01 2185.83 2438.78 2283.6 2559.38 2283.6C2679.98 2283.6 2777.75 2185.83 2777.75 2065.23" fill="#FFC76C"/>
<path d="M2372.29 2067.8C2372.29 2170.97 2456.22 2254.89 2559.38 2254.89C2662.54 2254.89 2746.47 2170.97 2746.47 2067.8C2746.47 1964.64 2662.54 1880.71 2559.38 1880.71C2456.22 1880.71 2372.29 1964.64 2372.29 2067.8ZM2418.69 2208.49C2381.11 2170.91 2360.42 2120.95 2360.42 2067.8C2360.42 2014.65 2381.11 1964.69 2418.69 1927.12C2456.27 1889.53 2506.23 1868.84 2559.38 1868.84C2612.53 1868.84 2662.49 1889.53 2700.06 1927.12C2737.65 1964.69 2758.34 2014.65 2758.34 2067.8C2758.34 2120.95 2737.65 2170.91 2700.06 2208.49C2662.49 2246.07 2612.53 2266.76 2559.38 2266.76C2506.23 2266.76 2456.27 2246.07 2418.69 2208.49" fill="#FFA412"/>
<path d="M2586.83 2125.55C2587.34 2121.25 2587.18 2117.41 2586.37 2114C2585.54 2110.59 2583.91 2107.39 2581.47 2104.4C2579.05 2101.43 2575.79 2098.55 2571.71 2095.79C2567.63 2093.03 2562.59 2090.2 2556.58 2087.31C2546.25 2082.25 2536.93 2077.12 2528.62 2071.95C2520.31 2066.76 2513.34 2061.09 2507.71 2054.93C2502.09 2048.77 2497.98 2041.87 2495.37 2034.2C2492.77 2026.53 2492.06 2017.69 2493.25 2007.69C2494.27 1999 2496.75 1991.27 2500.69 1984.48C2504.62 1977.69 2509.75 1971.99 2516.1 1967.35C2522.45 1962.72 2529.81 1959.21 2538.18 1956.84C2546.54 1954.47 2555.74 1953.4 2565.74 1953.67L2569.63 1920.87L2596.03 1924L2592.09 1957.25C2601.39 1959.6 2609.67 1963.12 2616.93 1967.81C2624.18 1972.51 2630.14 1978.19 2634.81 1984.85C2639.49 1991.52 2642.79 1999.15 2644.73 2007.71C2646.66 2016.28 2647.03 2025.68 2645.82 2035.89L2598.14 2030.24C2599.59 2017.97 2597.97 2008.48 2593.25 2001.76C2588.51 1995.04 2581.59 1991.13 2572.46 1990.04C2567.51 1989.45 2563.17 1989.64 2559.43 1990.6C2555.7 1991.55 2552.53 1993.09 2549.94 1995.21C2547.34 1997.35 2545.3 1999.99 2543.81 2003.12C2542.33 2006.25 2541.35 2009.72 2540.91 2013.49C2540.46 2017.28 2540.61 2020.76 2541.34 2023.96C2542.07 2027.16 2543.63 2030.21 2546.02 2033.15C2548.41 2036.07 2551.69 2038.95 2555.87 2041.77C2560.05 2044.6 2565.3 2047.63 2571.61 2050.87C2581.79 2056.11 2591.02 2061.35 2599.27 2066.57C2607.51 2071.8 2614.45 2077.52 2620.07 2083.73C2625.69 2089.93 2629.81 2096.88 2632.41 2104.55C2635.01 2112.21 2635.73 2120.99 2634.54 2130.91C2633.47 2139.89 2630.95 2147.77 2626.97 2154.56C2622.99 2161.33 2617.82 2166.99 2611.49 2171.52C2605.15 2176.05 2597.75 2179.43 2589.3 2181.63C2580.83 2183.84 2571.61 2184.81 2561.59 2184.56L2557.98 2215.05L2531.75 2211.95L2535.35 2181.6C2526.33 2179.6 2517.74 2176.56 2509.58 2172.48C2501.42 2168.41 2494.38 2163.09 2488.47 2156.53C2482.55 2149.99 2478.14 2142.08 2475.22 2132.83C2472.31 2123.56 2471.58 2112.81 2473.03 2100.55L2520.7 2106.21C2519.85 2113.45 2520.14 2119.64 2521.61 2124.72C2523.06 2129.83 2525.33 2134.03 2528.39 2137.35C2531.45 2140.65 2535.09 2143.16 2539.29 2144.85C2543.5 2146.55 2547.85 2147.65 2552.37 2148.19C2557.53 2148.8 2562.14 2148.68 2566.21 2147.81C2570.27 2146.95 2573.75 2145.49 2576.67 2143.45C2579.59 2141.43 2581.91 2138.88 2583.61 2135.81C2585.31 2132.75 2586.38 2129.33 2586.83 2125.55" fill="#FFA412"/>
<path d="M1608.55 2004.89C1608.55 2004.89 1580.99 2043.69 1555.73 2044.23C1530.47 2044.76 1492.03 2026.24 1492.03 2026.24C1492.03 2026.24 1468.83 1974.55 1484.57 1954.31C1484.57 1954.31 1500.34 1947.39 1516.85 1959.61C1519.67 1961.73 1522.55 1964.39 1525.38 1967.8C1529.39 1972.61 1533.89 1975.35 1538.65 1976.79C1556.67 1982.28 1578.07 1969.37 1586.07 1981.83C1590.75 1989.07 1595.83 1994.51 1600.02 1998.32C1604.97 2002.73 1608.55 2004.89 1608.55 2004.89Z" fill="#FFEDDC"/>
<path d="M1249.27 2284.75C1249.27 2284.75 1346.69 2048.72 1522.02 2044.23C1522.02 2044.23 1683.86 2062.21 1692.85 2284.75H1249.27" fill="#FFEDDC"/>
<path d="M1473.98 2051.44C1473.98 2051.44 1544.26 2067.07 1565.94 2057.88C1565.94 2057.88 1569.22 2028.49 1539.62 2032.61C1519.37 2035.43 1506.17 2025.69 1498.41 2021.75C1487.43 2016.16 1471.06 2039.15 1473.98 2051.44Z" fill="#2B478B"/>
<path d="M1535.14 2007.13C1530.65 2010.51 1516.85 1959.61 1516.85 1959.61C1519.67 1961.73 1522.55 1964.39 1525.38 1967.8C1529.39 1972.61 1533.89 1975.35 1538.65 1976.79C1538.7 1978.28 1539.5 2003.85 1535.14 2007.13Z" fill="#E5C1A1"/>
<path d="M1600.02 1998.32C1599.02 1998.91 1566.53 2018.37 1562.11 2018.37C1557.62 2018.37 1586.07 1981.83 1586.07 1981.83C1590.75 1989.07 1595.83 1994.51 1600.02 1998.32" fill="#E5C1A1"/>
<path d="M1344.43 2218.81C1342.63 2217.27 1413.37 2114.65 1432.85 2113.91C1452.33 2113.16 1496.1 2136.39 1527.79 2139.39C1559.47 2142.39 1590.19 2133.39 1596.19 2152.12C1602.19 2170.85 1618.67 2237.27 1608.55 2247.89C1598.45 2258.52 1383.33 2252.04 1344.43 2218.81" fill="#F9DDBF"/>
<path d="M2196.23 2090.81C2199.61 2094.68 2200.03 2099.01 2198.37 2103.63L2198.34 2103.69C2195.25 2112.24 2185.03 2121.77 2173.17 2131.31C2171.65 2132.53 2170.3 2133.64 2169.13 2134.67C2168.82 2134.93 2168.51 2135.21 2168.22 2135.48C2167.98 2135.69 2167.75 2135.91 2167.51 2136.11C2156.46 2146.31 2160.62 2148.65 2140.74 2169.35C2118.07 2192.92 2102.47 2193.35 2098.03 2191.2C2094.29 2189.37 2101.91 2176.87 2110.37 2162.8C2110.78 2162.13 2111.18 2161.44 2111.59 2160.76C2112.73 2158.89 2113.85 2156.99 2114.95 2155.11C2124.86 2138.2 2122.33 2130.25 2119.97 2105.08C2118.06 2084.61 2088.14 1990.77 2088.14 1990.77L2131.58 1983.29C2131.58 1983.29 2144.66 2058.03 2159.07 2069.53C2166.77 2075.67 2175.39 2075.73 2182.81 2080.29C2183.33 2080.6 2183.85 2080.93 2184.34 2081.27C2188.55 2084.05 2192.85 2086.93 2196.23 2090.81" fill="#FFB27D"/>
<path d="M2196.23 2090.81C2199.61 2094.68 2200.03 2099.01 2198.37 2103.63L2198.34 2103.69C2194.55 2112.23 2184.59 2121.72 2173.13 2131.21C2171.62 2132.45 2170.3 2133.6 2169.13 2134.67C2168.82 2134.93 2168.51 2135.21 2168.22 2135.48C2167.98 2135.69 2167.75 2135.91 2167.51 2136.11C2156.46 2146.31 2160.62 2148.65 2140.74 2169.35C2118.07 2192.92 2102.47 2193.35 2098.03 2191.2C2094.29 2189.37 2101.91 2176.87 2110.37 2162.8C2114.78 2161.19 2135.27 2152.87 2150.77 2133.04C2164.41 2115.63 2173.51 2093.25 2182.81 2080.29C2183.33 2080.6 2183.85 2080.93 2184.34 2081.27C2188.55 2084.05 2192.85 2086.93 2196.23 2090.81" fill="#233862"/>
<path d="M1846.02 2063.68C1843.34 2077.09 1824.22 2074.85 1802.87 2069.64C1781.53 2064.43 1786.61 2070.63 1756.22 2067.25C1725.83 2063.89 1716.62 2052.56 1715.7 2048.04C1714.86 2044.04 1729.89 2042.63 1745.98 2040.77C1748.01 2040.55 1750.05 2040.29 1752.07 2040.04C1770.26 2037.76 1783.58 2026.03 1800.09 2016.39C1815.74 2007.27 1839.09 1970.08 1839.09 1970.08L1880.75 1973.37C1880.75 1973.37 1858.89 2006.59 1850.43 2021.03C1845.46 2029.52 1845.71 2040.76 1846.34 2049.43C1846.66 2054.15 1846.97 2058.96 1846.02 2063.68" fill="#FFB27D"/>
<path d="M1802.87 2069.64C1781.53 2064.43 1786.61 2070.63 1756.22 2067.25C1725.83 2063.89 1716.62 2052.56 1715.7 2048.04C1714.86 2044.04 1729.89 2042.63 1745.98 2040.77L1746.14 2041.08C1746.14 2041.08 1764.35 2054 1789.65 2054.6C1810.27 2055.11 1832.1 2049.2 1846.34 2049.43C1846.66 2054.15 1846.97 2058.96 1846.02 2063.68C1843.34 2077.09 1824.22 2074.85 1802.87 2069.64" fill="#233862"/>
<path d="M2005.71 1797.23L2044.67 1902.05L2095.53 2038.92C2095.53 2038.92 2109.33 2040.25 2122.55 2036.45C2134.71 2032.93 2148.67 2023.73 2148.67 2023.73C2148.67 2023.73 2134.55 1876.77 2108.21 1792.41C2101.46 1770.76 2093.9 1753.24 2085.54 1743.39C2044.7 1695.12 2005.71 1797.23 2005.71 1797.23" fill="#233862"/>
<path d="M2045.33 1630.75C2070.85 1622.52 2143.63 1633.09 2216.75 1647.4L2232.06 1622.15L2389.99 1609.81C2389.99 1609.81 2442.11 1725.39 2413.58 1799.03C2409.39 1809.85 2401.06 1816.8 2386.85 1817.03H2384.54C2384.54 1817.03 2290.54 1816.97 2260.02 1816.97C2181.47 1816.97 2093.79 1762.97 2082.46 1760.71C2063.89 1757 2056.46 1794.13 2037.9 1833.12C2019.33 1872.11 1863.38 2005.77 1863.38 2005.77C1863.38 2005.77 1839.41 2006.01 1829.51 2002.31C1818.86 1998.31 1814.97 1993.12 1814.97 1993.12C1814.97 1993.12 1987.77 1649.32 2045.33 1630.75" fill="#2B478B"/>
<path d="M2188.06 1402.57C2237.87 1443.08 2357.87 1513.28 2358.54 1512.97C2358.54 1512.97 2396.98 1536 2423.21 1524.71C2466.93 1505.87 2500.5 1439.93 2440.02 1366.97C2409.87 1330.59 2384.86 1318.6 2390.74 1270.23C2397.1 1217.83 2373.43 1151.93 2313.1 1149.16C2308.06 1148.93 2277.51 1144.85 2255.71 1151.69C2200.15 1169.13 2107.25 1375.73 2188.06 1402.57" fill="#233862"/>
<path d="M2400.78 1626.96C2397.54 1635.93 2312.14 1643.93 2263.57 1640.71C2248.13 1639.71 2236.38 1637.53 2232.21 1633.93C2214.87 1618.88 2216.61 1651.99 2214.22 1493.57C2213.07 1416.32 2279.79 1347.51 2279.79 1347.51C2279.79 1347.51 2285.11 1380.51 2351.27 1341.23C2353.63 1339.85 2379.69 1378.43 2404.77 1425.93C2432.39 1478.43 2404.11 1617.72 2400.78 1626.96" fill="#AEC3FF"/>
<path d="M2044.67 1902.05L2095.53 2038.92C2095.53 2038.92 2109.33 2040.25 2122.55 2036.45C2134.71 2032.93 2148.67 2023.73 2148.67 2023.73C2148.67 2023.73 2134.55 1876.77 2108.21 1792.41L2044.67 1902.05" fill="#2B478B"/>
<path d="M2279.78 1347.49C2279.78 1347.49 2219.38 1362.31 2203.71 1388.35C2184.63 1420.04 2089.49 1563 2089.49 1563C2089.49 1563 2183.29 1596.17 2199.27 1580.19C2215.26 1564.2 2254.9 1431.87 2254.9 1431.87L2279.78 1347.49Z" fill="#AEC3FF"/>
<path d="M2351.43 1341.32C2351.69 1341.36 2327.06 1364.04 2309.01 1370.6C2301.94 1373.17 2290.21 1376 2290.21 1376C2290.21 1376 2280.78 1366.47 2280.65 1366.33C2272.27 1358.52 2280.69 1356.27 2279.42 1341.48C2279.35 1340.77 2279.3 1340.05 2279.22 1339.35C2277.53 1322.8 2272.75 1304.69 2272.45 1303.51L2272.42 1303.45L2330.87 1286.75L2328.99 1289.97C2332.59 1320.31 2343.49 1340.44 2351.43 1341.32" fill="#FFB27D"/>
<path d="M2330.87 1286.75C2325.21 1303.73 2309.74 1326.53 2278.21 1331.44C2275.17 1313.21 2272.75 1304.69 2272.45 1303.51L2272.42 1303.45L2330.87 1286.75" fill="#ED975D"/>
<path d="M2262.7 1321.07C2262.7 1321.07 2341.49 1315.83 2337.47 1266.81C2333.45 1217.8 2340.91 1184.11 2290.45 1185.37C2239.97 1186.65 2231.74 1206.16 2229.1 1222.84C2226.46 1239.53 2242.1 1321.16 2262.7 1321.07" fill="#FFB27D"/>
<path d="M2248.54 1184.51C2248.54 1184.51 2268.11 1241.95 2314.59 1248.61C2348.5 1253.49 2361.97 1244.32 2361.97 1244.32C2361.97 1244.32 2343.03 1226.33 2332.78 1198.68C2329.75 1190.52 2322.62 1184.59 2314.02 1183.27C2289.89 1179.53 2258.73 1163.56 2248.54 1184.51" fill="#233862"/>
<path d="M2265.23 1194.68C2265.23 1194.68 2251.17 1200.36 2241.35 1221.36C2235.99 1232.84 2232.11 1260.16 2235.43 1271.43C2235.43 1271.43 2212.78 1219.03 2229.18 1195.4C2246.57 1170.35 2265.23 1194.68 2265.23 1194.68Z" fill="#233862"/>
<path d="M2279.42 1341.48C2279.42 1341.48 2284.23 1370.56 2290.21 1376C2290.21 1376 2275.1 1370.41 2267.93 1350.88C2267.93 1350.88 2273.21 1342.15 2279.42 1341.48" fill="#91B0F2"/>
<path d="M2223.22 1440.4C2223.22 1440.4 2179.22 1493.19 2184.63 1512.31C2190.06 1531.41 2220.53 1531.41 2220.53 1531.41C2220.53 1531.41 2214.83 1490.69 2220.53 1469.49C2226.21 1448.31 2229.78 1439.15 2223.22 1440.4" fill="#91B0F2"/>
<path d="M2321.99 1592.48C2321.99 1592.48 2385.37 1553.85 2384.54 1531.41C2383.7 1508.97 2384.57 1467.8 2390.51 1473.56C2396.45 1479.33 2415.25 1525.59 2413.43 1538.68C2411.63 1551.79 2347.63 1643.24 2339.71 1643.01C2283.22 1641.44 2321.99 1592.48 2321.99 1592.48" fill="#91B0F2"/>
<path d="M2339.14 1327.84C2339.14 1327.84 2304.53 1371.37 2290.21 1376C2290.21 1376 2330.87 1376 2359.59 1342.05C2359.59 1342.05 2349.99 1327.99 2339.14 1327.84Z" fill="#91B0F2"/>
<path d="M2018.47 1545.43C2018.47 1456.72 2090.38 1384.8 2179.09 1384.8C2267.79 1384.8 2339.71 1456.72 2339.71 1545.43C2339.71 1634.13 2267.79 1706.04 2179.09 1706.04C2090.38 1706.04 2018.47 1634.13 2018.47 1545.43" fill="#E2810E"/>
<path d="M2004.46 1545.43C2004.46 1456.72 2076.37 1384.8 2165.07 1384.8C2253.78 1384.8 2325.7 1456.72 2325.7 1545.43C2325.7 1634.13 2253.78 1706.04 2165.07 1706.04C2076.37 1706.04 2004.46 1634.13 2004.46 1545.43" fill="#FFC76C"/>
<path d="M2165.07 1409.71C2089.19 1409.71 2027.47 1471.44 2027.47 1547.32C2027.47 1623.2 2089.19 1684.93 2165.07 1684.93C2240.95 1684.93 2302.69 1623.2 2302.69 1547.32C2302.69 1471.44 2240.95 1409.71 2165.07 1409.71ZM2165.07 1693.65C2125.99 1693.65 2089.23 1678.44 2061.59 1650.8C2033.95 1623.16 2018.74 1586.41 2018.74 1547.32C2018.74 1508.23 2033.95 1471.48 2061.59 1443.84C2089.23 1416.2 2125.99 1400.97 2165.07 1400.97C2204.17 1400.97 2240.91 1416.2 2268.55 1443.84C2296.19 1471.48 2311.42 1508.23 2311.42 1547.32C2311.42 1586.41 2296.19 1623.16 2268.55 1650.8C2240.91 1678.44 2204.17 1693.65 2165.07 1693.65Z" fill="#FFA412"/>
<path d="M2185.22 1589.79C2185.59 1586.64 2185.49 1583.8 2184.87 1581.29C2184.27 1578.79 2183.07 1576.43 2181.29 1574.24C2179.5 1572.04 2177.1 1569.93 2174.1 1567.89C2171.1 1565.87 2167.39 1563.79 2162.97 1561.67C2155.37 1557.95 2148.51 1554.17 2142.41 1550.36C2136.3 1546.55 2131.17 1542.39 2127.03 1537.85C2122.9 1533.32 2119.87 1528.24 2117.95 1522.6C2116.03 1516.96 2115.51 1510.47 2116.39 1503.11C2117.15 1496.72 2118.97 1491.03 2121.86 1486.03C2124.75 1481.04 2128.53 1476.84 2133.19 1473.44C2137.87 1470.03 2143.29 1467.45 2149.43 1465.71C2155.59 1463.96 2162.35 1463.17 2169.71 1463.36L2172.57 1439.24L2191.98 1441.55L2189.09 1466C2195.93 1467.73 2202.02 1470.32 2207.35 1473.77C2212.69 1477.23 2217.07 1481.4 2220.51 1486.31C2223.95 1491.21 2226.38 1496.81 2227.81 1503.12C2229.23 1509.43 2229.5 1516.33 2228.61 1523.84L2193.54 1519.68C2194.61 1510.67 2193.41 1503.69 2189.94 1498.73C2186.46 1493.8 2181.37 1490.92 2174.66 1490.12C2171.02 1489.69 2167.82 1489.83 2165.07 1490.53C2162.33 1491.23 2159.99 1492.37 2158.09 1493.93C2156.18 1495.49 2154.67 1497.43 2153.58 1499.75C2152.49 1502.05 2151.78 1504.6 2151.45 1507.37C2151.11 1510.16 2151.22 1512.72 2151.77 1515.07C2152.3 1517.43 2153.45 1519.67 2155.21 1521.83C2156.95 1523.97 2159.38 1526.09 2162.45 1528.17C2165.53 1530.25 2169.38 1532.48 2174.02 1534.85C2181.53 1538.72 2188.3 1542.57 2194.37 1546.41C2200.43 1550.25 2205.54 1554.47 2209.67 1559.03C2213.81 1563.6 2216.82 1568.71 2218.74 1574.33C2220.66 1579.97 2221.18 1586.44 2220.31 1593.73C2219.53 1600.33 2217.67 1606.15 2214.75 1611.12C2211.82 1616.11 2208.02 1620.27 2203.35 1623.6C2198.7 1626.93 2193.26 1629.41 2187.03 1631.04C2180.82 1632.67 2174.02 1633.39 2166.66 1633.2L2164.01 1655.63L2144.71 1653.33L2147.35 1631.01C2140.73 1629.55 2134.41 1627.31 2128.41 1624.32C2122.41 1621.32 2117.22 1617.4 2112.87 1612.59C2108.53 1607.76 2105.27 1601.95 2103.14 1595.13C2100.99 1588.33 2100.45 1580.41 2101.51 1571.4L2136.58 1575.56C2135.95 1580.89 2136.17 1585.44 2137.25 1589.19C2138.31 1592.93 2139.98 1596.03 2142.23 1598.47C2144.49 1600.91 2147.17 1602.75 2150.26 1603.99C2153.35 1605.23 2156.55 1606.05 2159.87 1606.44C2163.67 1606.89 2167.06 1606.8 2170.05 1606.16C2173.03 1605.53 2175.61 1604.47 2177.75 1602.96C2179.9 1601.47 2181.61 1599.59 2182.85 1597.33C2184.1 1595.09 2184.9 1592.57 2185.22 1589.79" fill="#FFA412"/>
<path d="M1993.29 1572.81C1993.29 1572.81 1991.5 1546.43 2001.47 1547.47C2013.7 1548.73 2026.7 1577.76 2020.74 1583.37C2014.77 1588.99 1993.42 1579.32 1993.29 1572.81Z" fill="#FFB27D"/>
<path d="M2334.85 1633.88L2319.97 1624.96C2319.97 1624.96 2310.74 1621.28 2305.3 1622.05C2299.86 1622.83 2286.95 1620.55 2286.55 1622.65C2286.14 1624.77 2298.95 1634.19 2298.95 1634.19C2291.25 1646.01 2263.33 1648.19 2261.21 1652.64C2258.63 1658.04 2271.25 1663.11 2278.09 1666.04C2284.93 1668.97 2302.42 1671.65 2312.53 1663.99C2319.91 1658.37 2332.05 1650.99 2332.05 1650.99L2334.85 1633.88" fill="#FFB27D"/>
<path d="M2351.29 1341.24C2351.29 1341.24 2413.79 1345.32 2429.42 1369.71C2445.05 1394.08 2495.23 1532.96 2487.11 1575.47C2478.98 1617.97 2330.33 1668.99 2330.33 1668.99C2330.33 1668.99 2323.75 1663.28 2323.75 1648.05C2323.75 1638.91 2328.51 1630.08 2328.51 1630.08C2328.51 1630.08 2419.71 1553.87 2413.43 1538.68C2390.26 1482.63 2351.29 1341.24 2351.29 1341.24" fill="#AEC3FF"/>
<path d="M3752.27 2297.16L91.6669 2295.89C89.1176 2295.89 87.0309 2293.81 87.0322 2291.27L87.0336 2288.43C87.0349 2285.88 89.1216 2283.8 91.6709 2283.8L3752.27 2285.05C3754.83 2285.05 3756.91 2287.15 3756.91 2289.69V2292.52C3756.91 2295.08 3754.82 2297.16 3752.27 2297.16Z" fill="#2E3552"/>
<path fill-rule="evenodd" clip-rule="evenodd" d="M2066.11 805.929C2064.38 797.467 2056.12 791.993 2047.65 793.696C2039.15 795.403 2033.64 803.676 2035.35 812.174C2037.06 820.672 2045.33 826.176 2053.83 824.469C2062.31 822.765 2067.8 814.528 2066.14 806.052L2066.11 805.929ZM2074.01 836.31C2069.54 840.098 2064.07 842.84 2057.92 844.076C2038.5 847.979 2019.59 835.397 2015.68 815.974C2011.78 796.55 2024.36 777.641 2043.79 773.738C2049.94 772.502 2056.04 772.919 2061.63 774.685C2062.89 771.694 2065.57 769.361 2068.99 768.673C2074.5 767.567 2079.85 771.132 2080.96 776.635L2091.09 827.044C2092.19 832.547 2088.63 837.905 2083.13 839.011C2079.7 839.699 2076.33 838.579 2074.01 836.31Z" fill="#A8D29F"/>
<rect x="2082.15" y="737.062" width="20.3274" height="100.143" rx="10.1637" transform="rotate(-11.3615 2082.15 737.062)" fill="#A8D29F"/>
<path fill-rule="evenodd" clip-rule="evenodd" d="M2120.84 729.288C2115.34 730.394 2111.77 735.752 2112.88 741.255L2128.6 819.506C2129.71 825.009 2135.07 828.574 2140.57 827.468C2146.07 826.363 2149.64 821.005 2148.53 815.502L2146.12 803.502L2173.63 818.524C2178.55 821.214 2184.73 819.402 2187.42 814.475C2190.11 809.548 2188.3 803.374 2183.37 800.683L2158.8 787.264L2176.28 765.393C2179.78 761.008 2179.07 754.613 2174.69 751.108C2170.3 747.603 2163.91 748.316 2160.4 752.7L2140.83 777.182L2132.81 737.251C2131.7 731.747 2126.34 728.182 2120.84 729.288Z" fill="#A8D29F"/>
</svg>
